M48
; DRILL file {KiCad 5.1.2} date Mon 17 Jun 2019 23:07:12 -03
; FORMAT={-:-/ absolute / inch / decimal}
; #@! TF.CreationDate,2019-06-17T23:07:12-03:00
; #@! TF.GenerationSoftware,Kicad,Pcbnew,5.1.2
; #@! TF.FileFunction,Plated,1,4,PTH
FMAT,2
INCH
T1C0.0118
T2C0.0217
T3C0.0276
T4C0.0295
T5C0.0335
T6C0.0394
%
G90
G05
T1
X3.8878Y-2.7854
X3.8878Y-2.8346
X3.9272Y-2.7854
X3.9272Y-2.8346
X3.9764Y-2.7854
X3.9764Y-2.8346
X4.0256Y-2.7854
X4.0256Y-2.8346
X4.0256Y-2.8839
X4.0256Y-2.9626
X4.0354Y-3.0512
X4.0354Y-3.0906
X4.0417Y-4.7268
X4.0453Y-3.1693
X4.0748Y-2.7854
X4.0748Y-2.8346
X4.0748Y-2.8839
X4.0748Y-2.9626
X4.0748Y-3.0512
X4.0748Y-3.0906
X4.0898Y-4.6268
X4.0945Y-3.1693
X4.1339Y-2.7854
X4.1339Y-2.8346
X4.1339Y-2.8839
X4.1339Y-2.9626
X4.1339Y-3.0512
X4.1339Y-3.0906
X4.1535Y-3.1693
X4.1929Y-2.7854
X4.1929Y-2.8346
X4.1929Y-2.8839
X4.1929Y-2.9626
X4.1929Y-3.0512
X4.1929Y-3.0906
X4.2028Y-3.1693
X4.2126Y-3.8031
X4.2126Y-3.8661
X4.2126Y-4.3701
X4.2126Y-4.8583
X4.2461Y-4.0531
X4.252Y-2.7854
X4.252Y-2.8346
X4.252Y-2.8839
X4.252Y-3.0512
X4.252Y-3.1004
X4.2525Y-3.3223
X4.2525Y-3.4729
X4.3012Y-3.1791
X4.3071Y-4.5984
X4.311Y-4.1142
X4.3209Y-2.7854
X4.3209Y-2.8346
X4.3209Y-2.8839
X4.3209Y-2.9232
X4.3209Y-2.9823
X4.3209Y-3.0512
X4.3209Y-3.1102
X4.3287Y-3.9941
X4.3504Y-3.1791
X4.3622Y-4.7087
X4.3701Y-4.748
X4.378Y-3.5197
X4.3799Y-2.8346
X4.3799Y-2.8839
X4.3799Y-2.9232
X4.3799Y-2.9823
X4.3799Y-3.061
X4.3799Y-3.1102
X4.4094Y-3.189
X4.4094Y-4.5827
X4.4173Y-4.7087
X4.439Y-2.8346
X4.439Y-2.8839
X4.439Y-2.9331
X4.4409Y-4.1496
X4.4599Y-4.4914
X4.4599Y-4.704
X4.4803Y-3.1575
X4.4849Y-4.5991
X4.4853Y-4.3927
X4.498Y-2.8346
X4.498Y-2.8839
X4.498Y-2.9331
X4.498Y-2.9921
X4.5039Y-3.4803
X4.5276Y-3.4961
X4.5276Y-3.6811
X4.5276Y-3.8898
X4.5276Y-4.0157
X4.5276Y-4.0787
X4.5276Y-4.748
X4.5349Y-4.4956
X4.5374Y-4.5965
X4.5418Y-4.7101
X4.5433Y-3.7244
X4.5512Y-3.0945
X4.5512Y-3.252
X4.5512Y-3.5118
X4.5512Y-4.2441
X4.5571Y-2.8346
X4.5571Y-2.8839
X4.5571Y-2.9331
X4.565Y-4.5571
X4.5669Y-3.6063
X4.5669Y-3.6299
X4.5669Y-3.6535
X4.5669Y-3.6772
X4.5739Y-4.0245
X4.5748Y-3.5276
X4.5827Y-4.937
X4.5958Y-3.9396
X4.5984Y-3.5433
X4.6142Y-3.0748
X4.6161Y-2.8346
X4.6161Y-2.8839
X4.6161Y-2.9331
X4.622Y-4.0472
X4.6378Y-3.7008
X4.6619Y-3.2515
X4.6693Y-3.7008
X4.6752Y-2.8346
X4.6752Y-2.8839
X4.6752Y-2.9331
X4.6752Y-2.9921
X4.6752Y-3.0315
X4.6752Y-3.0906
X4.6772Y-3.3622
X4.6772Y-3.7874
X4.6772Y-4.0
X4.685Y-4.3228
X4.685Y-4.748
X4.7008Y-3.3465
X4.7087Y-3.4646
X4.7087Y-3.5197
X4.7087Y-3.5748
X4.7106Y-4.439
X4.7165Y-4.5118
X4.7244Y-2.9331
X4.7244Y-2.9921
X4.7244Y-3.0315
X4.7244Y-3.0906
X4.7343Y-2.8346
X4.7343Y-2.8839
X4.7402Y-3.9055
X4.7402Y-4.1732
X4.7441Y-4.2559
X4.748Y-5.0945
X4.7638Y-3.0315
X4.7638Y-3.0906
X4.7717Y-3.4646
X4.7717Y-3.5197
X4.7717Y-3.5748
X4.7795Y-3.8425
X4.7835Y-2.8839
X4.7835Y-2.9921
X4.7874Y-4.0
X4.7992Y-3.8228
X4.8031Y-4.9213
X4.813Y-3.0315
X4.813Y-3.0807
X4.813Y-3.2185
X4.813Y-3.2776
X4.813Y-3.3268
X4.8169Y-3.372
X4.8189Y-3.8031
X4.8346Y-3.4646
X4.8346Y-3.5197
X4.8346Y-3.5748
X4.8346Y-3.7638
X4.8504Y-2.8346
X4.8558Y-4.7456
X4.8661Y-2.8819
X4.8661Y-3.7323
X4.872Y-2.9331
X4.872Y-3.2185
X4.872Y-3.3268
X4.874Y-3.3701
X4.876Y-3.9783
X4.8819Y-3.1398
X4.8819Y-3.2972
X4.8936Y-3.7087
X4.9055Y-4.4646
X4.9055Y-4.7559
X4.9114Y-2.8346
X4.9114Y-2.8839
X4.9114Y-2.9331
X4.9114Y-2.9823
X4.9114Y-3.0413
X4.9114Y-3.0906
X4.9291Y-3.4724
X4.9291Y-3.8898
X4.9291Y-4.0079
X4.9311Y-3.1398
X4.9365Y-3.2908
X4.9626Y-4.439
X4.9685Y-3.1535
X4.9764Y-3.9606
X4.9803Y-2.8346
X4.9803Y-2.8839
X4.9803Y-2.9331
X4.9803Y-2.9823
X4.9803Y-3.0413
X4.9803Y-3.0906
X4.9843Y-3.4803
X4.9995Y-4.7475
X5.0064Y-3.6944
X5.0197Y-4.2323
X5.0236Y-3.2047
X5.0236Y-3.5118
X5.0315Y-4.063
X5.0492Y-2.8346
X5.0492Y-2.8839
X5.0492Y-2.9331
X5.0492Y-2.9823
X5.0492Y-3.0413
X5.0492Y-3.0906
X5.0492Y-3.1398
X5.063Y-3.7795
X5.063Y-4.7953
X5.0866Y-4.5748
X5.0886Y-3.2087
X5.1066Y-4.7837
X5.1142Y-3.4843
X5.1181Y-2.8346
X5.1181Y-2.8839
X5.1181Y-2.9331
X5.122Y-3.5669
X5.122Y-4.6496
X5.1339Y-3.0787
X5.1417Y-4.0079
X5.1575Y-3.2087
X5.187Y-2.8346
X5.187Y-2.8839
X5.187Y-2.9331
X5.1929Y-3.7441
X5.2264Y-3.2087
X5.252Y-3.3228
X5.2657Y-2.8346
X5.2657Y-2.8839
X5.2657Y-2.9331
X5.2657Y-2.9823
X5.2677Y-4.7638
X5.2717Y-3.7205
X5.2756Y-3.1654
X5.2953Y-3.2185
X5.3228Y-3.5748
X5.3346Y-2.8346
X5.3346Y-2.8839
X5.3346Y-2.9331
X5.3346Y-2.9823
X5.3346Y-4.4685
X5.3543Y-3.1102
X5.3543Y-3.1693
X5.3543Y-3.2185
X5.3583Y-3.4843
X5.4035Y-2.7657
X5.4035Y-2.8346
X5.4035Y-2.8839
X5.4035Y-2.9331
X5.4035Y-2.9823
X5.4035Y-3.0413
X5.4035Y-3.1299
X5.4173Y-4.0945
X5.4246Y-3.229
X5.4252Y-3.1811
X5.4291Y-3.7441
X5.4311Y-3.5177
X5.4331Y-3.0709
X5.4331Y-3.4252
X5.4331Y-3.6378
X5.4331Y-3.8898
X5.4677Y-4.0268
X5.472Y-3.0901
X5.4724Y-2.7657
X5.4724Y-2.8346
X5.4724Y-2.8839
X5.4724Y-2.9331
X5.4724Y-2.9823
X5.4724Y-3.0413
X5.4803Y-3.1732
X5.49Y-3.7795
X5.4961Y-3.3858
X5.5094Y-4.7268
X5.515Y-4.6268
X5.5413Y-2.7657
X5.5413Y-2.8346
X5.6102Y-2.7657
X5.6102Y-2.8346
X4.3937Y-2.7677
X4.4803Y-2.7677
X4.5748Y-2.7677
X4.6654Y-2.7677
X4.752Y-2.7677
X4.8465Y-2.7677
X4.937Y-2.7677
X5.0315Y-2.7677
X5.126Y-2.7677
X5.2205Y-2.7677
X5.315Y-2.7677
T3
X5.1543Y-4.5472
X5.3543Y-4.5472
T4
X5.1024Y-4.9803
X5.1811Y-4.9803
T6
X3.9606Y-2.9268
X3.9606Y-3.0268
X3.9606Y-3.1268
X3.9606Y-3.2268
X3.9606Y-3.3268
X3.9606Y-3.4268
X3.9606Y-3.5268
X3.9606Y-3.6268
X3.9606Y-3.7268
X3.9606Y-3.8268
X3.9606Y-3.9268
X3.9606Y-4.0268
X3.9606Y-4.1268
X3.9606Y-4.2268
X3.9606Y-4.3268
X3.9606Y-4.4268
X3.9606Y-4.5268
X3.9606Y-4.6268
X3.9606Y-4.7268
X3.9606Y-4.8268
X5.5827Y-2.9268
X5.5827Y-3.0268
X5.5827Y-3.1268
X5.5827Y-3.2268
X5.5827Y-3.3268
X5.5827Y-3.4268
X5.5827Y-3.5268
X5.5827Y-3.6268
X5.5827Y-3.7268
X5.5827Y-3.8268
X5.5827Y-3.9268
X5.5827Y-4.0268
X5.5827Y-4.1268
X5.5827Y-4.2268
X5.5827Y-4.3268
X5.5827Y-4.4268
X5.5827Y-4.5268
X5.5827Y-4.6268
X5.5827Y-4.7268
X5.5827Y-4.8268
T2
G00X4.375Y-5.1506
M15
G01X4.375Y-5.1762
M16
G05
G00X4.6801Y-5.1506
M15
G01X4.6801Y-5.1762
M16
G05
T5
G00X4.3809Y-5.003
M15
G01X4.3809Y-5.0246
M16
G05
G00X4.6742Y-5.003
M15
G01X4.6742Y-5.0246
M16
G05
T0
M30
