G04 #@! TF.GenerationSoftware,KiCad,Pcbnew,5.1.2*
G04 #@! TF.CreationDate,2019-06-17T23:05:56-03:00*
G04 #@! TF.ProjectId,luciannaFacundo,6c756369-616e-46e6-9146-6163756e646f,Piza AG*
G04 #@! TF.SameCoordinates,Original*
G04 #@! TF.FileFunction,Profile,NP*
%FSLAX46Y46*%
G04 Gerber Fmt 4.6, Leading zero omitted, Abs format (unit mm)*
G04 Created by KiCad (PCBNEW 5.1.2) date 2019-06-17 23:05:56*
%MOMM*%
%LPD*%
G04 APERTURE LIST*
%ADD10C,0.100000*%
%ADD11C,0.150000*%
%ADD12C,0.300000*%
%ADD13C,0.400000*%
%ADD14C,0.050000*%
G04 APERTURE END LIST*
D10*
D11*
X177002200Y-166007200D02*
X177002200Y-198007200D01*
X285002200Y-198007200D01*
X285002200Y-166007200D01*
X177002200Y-166007200D01*
D10*
D11*
X10000000Y-10000000D02*
X10000000Y-200007200D01*
X287002200Y-200007200D01*
X287002200Y-10000000D01*
X10000000Y-10000000D01*
D10*
D11*
X12000000Y-12000000D02*
X12000000Y-198007200D01*
X285002200Y-198007200D01*
X285002200Y-12000000D01*
X12000000Y-12000000D01*
D10*
D11*
X60000000Y-12000000D02*
X60000000Y-10000000D01*
D10*
D11*
X110000000Y-12000000D02*
X110000000Y-10000000D01*
D10*
D11*
X160000000Y-12000000D02*
X160000000Y-10000000D01*
D10*
D11*
X210000000Y-12000000D02*
X210000000Y-10000000D01*
D10*
D11*
X260000000Y-12000000D02*
X260000000Y-10000000D01*
D10*
D11*
X36065476Y-11588095D02*
X35322619Y-11588095D01*
X35694047Y-11588095D02*
X35694047Y-10288095D01*
X35570238Y-10473809D01*
X35446428Y-10597619D01*
X35322619Y-10659523D01*
D10*
D11*
X85322619Y-10411904D02*
X85384523Y-10350000D01*
X85508333Y-10288095D01*
X85817857Y-10288095D01*
X85941666Y-10350000D01*
X86003571Y-10411904D01*
X86065476Y-10535714D01*
X86065476Y-10659523D01*
X86003571Y-10845238D01*
X85260714Y-11588095D01*
X86065476Y-11588095D01*
D10*
D11*
X135260714Y-10288095D02*
X136065476Y-10288095D01*
X135632142Y-10783333D01*
X135817857Y-10783333D01*
X135941666Y-10845238D01*
X136003571Y-10907142D01*
X136065476Y-11030952D01*
X136065476Y-11340476D01*
X136003571Y-11464285D01*
X135941666Y-11526190D01*
X135817857Y-11588095D01*
X135446428Y-11588095D01*
X135322619Y-11526190D01*
X135260714Y-11464285D01*
D10*
D11*
X185941666Y-10721428D02*
X185941666Y-11588095D01*
X185632142Y-10226190D02*
X185322619Y-11154761D01*
X186127380Y-11154761D01*
D10*
D11*
X236003571Y-10288095D02*
X235384523Y-10288095D01*
X235322619Y-10907142D01*
X235384523Y-10845238D01*
X235508333Y-10783333D01*
X235817857Y-10783333D01*
X235941666Y-10845238D01*
X236003571Y-10907142D01*
X236065476Y-11030952D01*
X236065476Y-11340476D01*
X236003571Y-11464285D01*
X235941666Y-11526190D01*
X235817857Y-11588095D01*
X235508333Y-11588095D01*
X235384523Y-11526190D01*
X235322619Y-11464285D01*
D10*
D11*
X285941666Y-10288095D02*
X285694047Y-10288095D01*
X285570238Y-10350000D01*
X285508333Y-10411904D01*
X285384523Y-10597619D01*
X285322619Y-10845238D01*
X285322619Y-11340476D01*
X285384523Y-11464285D01*
X285446428Y-11526190D01*
X285570238Y-11588095D01*
X285817857Y-11588095D01*
X285941666Y-11526190D01*
X286003571Y-11464285D01*
X286065476Y-11340476D01*
X286065476Y-11030952D01*
X286003571Y-10907142D01*
X285941666Y-10845238D01*
X285817857Y-10783333D01*
X285570238Y-10783333D01*
X285446428Y-10845238D01*
X285384523Y-10907142D01*
X285322619Y-11030952D01*
D10*
D11*
X60000000Y-198007200D02*
X60000000Y-200007200D01*
D10*
D11*
X110000000Y-198007200D02*
X110000000Y-200007200D01*
D10*
D11*
X160000000Y-198007200D02*
X160000000Y-200007200D01*
D10*
D11*
X210000000Y-198007200D02*
X210000000Y-200007200D01*
D10*
D11*
X260000000Y-198007200D02*
X260000000Y-200007200D01*
D10*
D11*
X36065476Y-199595295D02*
X35322619Y-199595295D01*
X35694047Y-199595295D02*
X35694047Y-198295295D01*
X35570238Y-198481009D01*
X35446428Y-198604819D01*
X35322619Y-198666723D01*
D10*
D11*
X85322619Y-198419104D02*
X85384523Y-198357200D01*
X85508333Y-198295295D01*
X85817857Y-198295295D01*
X85941666Y-198357200D01*
X86003571Y-198419104D01*
X86065476Y-198542914D01*
X86065476Y-198666723D01*
X86003571Y-198852438D01*
X85260714Y-199595295D01*
X86065476Y-199595295D01*
D10*
D11*
X135260714Y-198295295D02*
X136065476Y-198295295D01*
X135632142Y-198790533D01*
X135817857Y-198790533D01*
X135941666Y-198852438D01*
X136003571Y-198914342D01*
X136065476Y-199038152D01*
X136065476Y-199347676D01*
X136003571Y-199471485D01*
X135941666Y-199533390D01*
X135817857Y-199595295D01*
X135446428Y-199595295D01*
X135322619Y-199533390D01*
X135260714Y-199471485D01*
D10*
D11*
X185941666Y-198728628D02*
X185941666Y-199595295D01*
X185632142Y-198233390D02*
X185322619Y-199161961D01*
X186127380Y-199161961D01*
D10*
D11*
X236003571Y-198295295D02*
X235384523Y-198295295D01*
X235322619Y-198914342D01*
X235384523Y-198852438D01*
X235508333Y-198790533D01*
X235817857Y-198790533D01*
X235941666Y-198852438D01*
X236003571Y-198914342D01*
X236065476Y-199038152D01*
X236065476Y-199347676D01*
X236003571Y-199471485D01*
X235941666Y-199533390D01*
X235817857Y-199595295D01*
X235508333Y-199595295D01*
X235384523Y-199533390D01*
X235322619Y-199471485D01*
D10*
D11*
X285941666Y-198295295D02*
X285694047Y-198295295D01*
X285570238Y-198357200D01*
X285508333Y-198419104D01*
X285384523Y-198604819D01*
X285322619Y-198852438D01*
X285322619Y-199347676D01*
X285384523Y-199471485D01*
X285446428Y-199533390D01*
X285570238Y-199595295D01*
X285817857Y-199595295D01*
X285941666Y-199533390D01*
X286003571Y-199471485D01*
X286065476Y-199347676D01*
X286065476Y-199038152D01*
X286003571Y-198914342D01*
X285941666Y-198852438D01*
X285817857Y-198790533D01*
X285570238Y-198790533D01*
X285446428Y-198852438D01*
X285384523Y-198914342D01*
X285322619Y-199038152D01*
D10*
D11*
X10000000Y-60000000D02*
X12000000Y-60000000D01*
D10*
D11*
X10000000Y-110000000D02*
X12000000Y-110000000D01*
D10*
D11*
X10000000Y-160000000D02*
X12000000Y-160000000D01*
D10*
D11*
X10690476Y-35216666D02*
X11309523Y-35216666D01*
X10566666Y-35588095D02*
X11000000Y-34288095D01*
X11433333Y-35588095D01*
D10*
D11*
X11092857Y-84907142D02*
X11278571Y-84969047D01*
X11340476Y-85030952D01*
X11402380Y-85154761D01*
X11402380Y-85340476D01*
X11340476Y-85464285D01*
X11278571Y-85526190D01*
X11154761Y-85588095D01*
X10659523Y-85588095D01*
X10659523Y-84288095D01*
X11092857Y-84288095D01*
X11216666Y-84350000D01*
X11278571Y-84411904D01*
X11340476Y-84535714D01*
X11340476Y-84659523D01*
X11278571Y-84783333D01*
X11216666Y-84845238D01*
X11092857Y-84907142D01*
X10659523Y-84907142D01*
D10*
D11*
X11402380Y-135464285D02*
X11340476Y-135526190D01*
X11154761Y-135588095D01*
X11030952Y-135588095D01*
X10845238Y-135526190D01*
X10721428Y-135402380D01*
X10659523Y-135278571D01*
X10597619Y-135030952D01*
X10597619Y-134845238D01*
X10659523Y-134597619D01*
X10721428Y-134473809D01*
X10845238Y-134350000D01*
X11030952Y-134288095D01*
X11154761Y-134288095D01*
X11340476Y-134350000D01*
X11402380Y-134411904D01*
D10*
D11*
X10659523Y-185588095D02*
X10659523Y-184288095D01*
X10969047Y-184288095D01*
X11154761Y-184350000D01*
X11278571Y-184473809D01*
X11340476Y-184597619D01*
X11402380Y-184845238D01*
X11402380Y-185030952D01*
X11340476Y-185278571D01*
X11278571Y-185402380D01*
X11154761Y-185526190D01*
X10969047Y-185588095D01*
X10659523Y-185588095D01*
D10*
D11*
X287002200Y-60000000D02*
X285002200Y-60000000D01*
D10*
D11*
X287002200Y-110000000D02*
X285002200Y-110000000D01*
D10*
D11*
X287002200Y-160000000D02*
X285002200Y-160000000D01*
D10*
D11*
X285692676Y-35216666D02*
X286311723Y-35216666D01*
X285568866Y-35588095D02*
X286002200Y-34288095D01*
X286435533Y-35588095D01*
D10*
D11*
X286095057Y-84907142D02*
X286280771Y-84969047D01*
X286342676Y-85030952D01*
X286404580Y-85154761D01*
X286404580Y-85340476D01*
X286342676Y-85464285D01*
X286280771Y-85526190D01*
X286156961Y-85588095D01*
X285661723Y-85588095D01*
X285661723Y-84288095D01*
X286095057Y-84288095D01*
X286218866Y-84350000D01*
X286280771Y-84411904D01*
X286342676Y-84535714D01*
X286342676Y-84659523D01*
X286280771Y-84783333D01*
X286218866Y-84845238D01*
X286095057Y-84907142D01*
X285661723Y-84907142D01*
D10*
D11*
X286404580Y-135464285D02*
X286342676Y-135526190D01*
X286156961Y-135588095D01*
X286033152Y-135588095D01*
X285847438Y-135526190D01*
X285723628Y-135402380D01*
X285661723Y-135278571D01*
X285599819Y-135030952D01*
X285599819Y-134845238D01*
X285661723Y-134597619D01*
X285723628Y-134473809D01*
X285847438Y-134350000D01*
X286033152Y-134288095D01*
X286156961Y-134288095D01*
X286342676Y-134350000D01*
X286404580Y-134411904D01*
D10*
D11*
X285661723Y-185588095D02*
X285661723Y-184288095D01*
X285971247Y-184288095D01*
X286156961Y-184350000D01*
X286280771Y-184473809D01*
X286342676Y-184597619D01*
X286404580Y-184845238D01*
X286404580Y-185030952D01*
X286342676Y-185278571D01*
X286280771Y-185402380D01*
X286156961Y-185526190D01*
X285971247Y-185588095D01*
X285661723Y-185588095D01*
D10*
D11*
X200434342Y-193785771D02*
X200434342Y-192285771D01*
X200791485Y-192285771D01*
X201005771Y-192357200D01*
X201148628Y-192500057D01*
X201220057Y-192642914D01*
X201291485Y-192928628D01*
X201291485Y-193142914D01*
X201220057Y-193428628D01*
X201148628Y-193571485D01*
X201005771Y-193714342D01*
X200791485Y-193785771D01*
X200434342Y-193785771D01*
X202577200Y-193785771D02*
X202577200Y-193000057D01*
X202505771Y-192857200D01*
X202362914Y-192785771D01*
X202077200Y-192785771D01*
X201934342Y-192857200D01*
X202577200Y-193714342D02*
X202434342Y-193785771D01*
X202077200Y-193785771D01*
X201934342Y-193714342D01*
X201862914Y-193571485D01*
X201862914Y-193428628D01*
X201934342Y-193285771D01*
X202077200Y-193214342D01*
X202434342Y-193214342D01*
X202577200Y-193142914D01*
X203077200Y-192785771D02*
X203648628Y-192785771D01*
X203291485Y-192285771D02*
X203291485Y-193571485D01*
X203362914Y-193714342D01*
X203505771Y-193785771D01*
X203648628Y-193785771D01*
X204720057Y-193714342D02*
X204577200Y-193785771D01*
X204291485Y-193785771D01*
X204148628Y-193714342D01*
X204077200Y-193571485D01*
X204077200Y-193000057D01*
X204148628Y-192857200D01*
X204291485Y-192785771D01*
X204577200Y-192785771D01*
X204720057Y-192857200D01*
X204791485Y-193000057D01*
X204791485Y-193142914D01*
X204077200Y-193285771D01*
X205434342Y-193642914D02*
X205505771Y-193714342D01*
X205434342Y-193785771D01*
X205362914Y-193714342D01*
X205434342Y-193642914D01*
X205434342Y-193785771D01*
X205434342Y-192857200D02*
X205505771Y-192928628D01*
X205434342Y-193000057D01*
X205362914Y-192928628D01*
X205434342Y-192857200D01*
X205434342Y-193000057D01*
X207220057Y-192428628D02*
X207291485Y-192357200D01*
X207434342Y-192285771D01*
X207791485Y-192285771D01*
X207934342Y-192357200D01*
X208005771Y-192428628D01*
X208077200Y-192571485D01*
X208077200Y-192714342D01*
X208005771Y-192928628D01*
X207148628Y-193785771D01*
X208077200Y-193785771D01*
X209005771Y-192285771D02*
X209148628Y-192285771D01*
X209291485Y-192357200D01*
X209362914Y-192428628D01*
X209434342Y-192571485D01*
X209505771Y-192857200D01*
X209505771Y-193214342D01*
X209434342Y-193500057D01*
X209362914Y-193642914D01*
X209291485Y-193714342D01*
X209148628Y-193785771D01*
X209005771Y-193785771D01*
X208862914Y-193714342D01*
X208791485Y-193642914D01*
X208720057Y-193500057D01*
X208648628Y-193214342D01*
X208648628Y-192857200D01*
X208720057Y-192571485D01*
X208791485Y-192428628D01*
X208862914Y-192357200D01*
X209005771Y-192285771D01*
X210934342Y-193785771D02*
X210077200Y-193785771D01*
X210505771Y-193785771D02*
X210505771Y-192285771D01*
X210362914Y-192500057D01*
X210220057Y-192642914D01*
X210077200Y-192714342D01*
X211648628Y-193785771D02*
X211934342Y-193785771D01*
X212077200Y-193714342D01*
X212148628Y-193642914D01*
X212291485Y-193428628D01*
X212362914Y-193142914D01*
X212362914Y-192571485D01*
X212291485Y-192428628D01*
X212220057Y-192357200D01*
X212077200Y-192285771D01*
X211791485Y-192285771D01*
X211648628Y-192357200D01*
X211577200Y-192428628D01*
X211505771Y-192571485D01*
X211505771Y-192928628D01*
X211577200Y-193071485D01*
X211648628Y-193142914D01*
X211791485Y-193214342D01*
X212077200Y-193214342D01*
X212220057Y-193142914D01*
X212291485Y-193071485D01*
X212362914Y-192928628D01*
X213005771Y-193214342D02*
X214148628Y-193214342D01*
X215148628Y-192285771D02*
X215291485Y-192285771D01*
X215434342Y-192357200D01*
X215505771Y-192428628D01*
X215577200Y-192571485D01*
X215648628Y-192857200D01*
X215648628Y-193214342D01*
X215577200Y-193500057D01*
X215505771Y-193642914D01*
X215434342Y-193714342D01*
X215291485Y-193785771D01*
X215148628Y-193785771D01*
X215005771Y-193714342D01*
X214934342Y-193642914D01*
X214862914Y-193500057D01*
X214791485Y-193214342D01*
X214791485Y-192857200D01*
X214862914Y-192571485D01*
X214934342Y-192428628D01*
X215005771Y-192357200D01*
X215148628Y-192285771D01*
X216934342Y-192285771D02*
X216648628Y-192285771D01*
X216505771Y-192357200D01*
X216434342Y-192428628D01*
X216291485Y-192642914D01*
X216220057Y-192928628D01*
X216220057Y-193500057D01*
X216291485Y-193642914D01*
X216362914Y-193714342D01*
X216505771Y-193785771D01*
X216791485Y-193785771D01*
X216934342Y-193714342D01*
X217005771Y-193642914D01*
X217077200Y-193500057D01*
X217077200Y-193142914D01*
X217005771Y-193000057D01*
X216934342Y-192928628D01*
X216791485Y-192857200D01*
X216505771Y-192857200D01*
X216362914Y-192928628D01*
X216291485Y-193000057D01*
X216220057Y-193142914D01*
X217720057Y-193214342D02*
X218862914Y-193214342D01*
X220362914Y-193785771D02*
X219505771Y-193785771D01*
X219934342Y-193785771D02*
X219934342Y-192285771D01*
X219791485Y-192500057D01*
X219648628Y-192642914D01*
X219505771Y-192714342D01*
X220862914Y-192285771D02*
X221862914Y-192285771D01*
X221220057Y-193785771D01*
D10*
D11*
X177002200Y-194507200D02*
X285002200Y-194507200D01*
D10*
D11*
X178434342Y-196585771D02*
X178434342Y-195085771D01*
X179291485Y-196585771D02*
X178648628Y-195728628D01*
X179291485Y-195085771D02*
X178434342Y-195942914D01*
X179934342Y-196585771D02*
X179934342Y-195585771D01*
X179934342Y-195085771D02*
X179862914Y-195157200D01*
X179934342Y-195228628D01*
X180005771Y-195157200D01*
X179934342Y-195085771D01*
X179934342Y-195228628D01*
X181505771Y-196442914D02*
X181434342Y-196514342D01*
X181220057Y-196585771D01*
X181077200Y-196585771D01*
X180862914Y-196514342D01*
X180720057Y-196371485D01*
X180648628Y-196228628D01*
X180577200Y-195942914D01*
X180577200Y-195728628D01*
X180648628Y-195442914D01*
X180720057Y-195300057D01*
X180862914Y-195157200D01*
X181077200Y-195085771D01*
X181220057Y-195085771D01*
X181434342Y-195157200D01*
X181505771Y-195228628D01*
X182791485Y-196585771D02*
X182791485Y-195800057D01*
X182720057Y-195657200D01*
X182577200Y-195585771D01*
X182291485Y-195585771D01*
X182148628Y-195657200D01*
X182791485Y-196514342D02*
X182648628Y-196585771D01*
X182291485Y-196585771D01*
X182148628Y-196514342D01*
X182077200Y-196371485D01*
X182077200Y-196228628D01*
X182148628Y-196085771D01*
X182291485Y-196014342D01*
X182648628Y-196014342D01*
X182791485Y-195942914D01*
X184148628Y-196585771D02*
X184148628Y-195085771D01*
X184148628Y-196514342D02*
X184005771Y-196585771D01*
X183720057Y-196585771D01*
X183577200Y-196514342D01*
X183505771Y-196442914D01*
X183434342Y-196300057D01*
X183434342Y-195871485D01*
X183505771Y-195728628D01*
X183577200Y-195657200D01*
X183720057Y-195585771D01*
X184005771Y-195585771D01*
X184148628Y-195657200D01*
X186005771Y-195800057D02*
X186505771Y-195800057D01*
X186720057Y-196585771D02*
X186005771Y-196585771D01*
X186005771Y-195085771D01*
X186720057Y-195085771D01*
X187362914Y-196442914D02*
X187434342Y-196514342D01*
X187362914Y-196585771D01*
X187291485Y-196514342D01*
X187362914Y-196442914D01*
X187362914Y-196585771D01*
X188077200Y-196585771D02*
X188077200Y-195085771D01*
X188434342Y-195085771D01*
X188648628Y-195157200D01*
X188791485Y-195300057D01*
X188862914Y-195442914D01*
X188934342Y-195728628D01*
X188934342Y-195942914D01*
X188862914Y-196228628D01*
X188791485Y-196371485D01*
X188648628Y-196514342D01*
X188434342Y-196585771D01*
X188077200Y-196585771D01*
X189577200Y-196442914D02*
X189648628Y-196514342D01*
X189577200Y-196585771D01*
X189505771Y-196514342D01*
X189577200Y-196442914D01*
X189577200Y-196585771D01*
X190220057Y-196157200D02*
X190934342Y-196157200D01*
X190077200Y-196585771D02*
X190577200Y-195085771D01*
X191077200Y-196585771D01*
X191577200Y-196442914D02*
X191648628Y-196514342D01*
X191577200Y-196585771D01*
X191505771Y-196514342D01*
X191577200Y-196442914D01*
X191577200Y-196585771D01*
X194577200Y-196585771D02*
X194577200Y-195085771D01*
X194720057Y-196014342D02*
X195148628Y-196585771D01*
X195148628Y-195585771D02*
X194577200Y-196157200D01*
X195791485Y-196585771D02*
X195791485Y-195585771D01*
X195791485Y-195085771D02*
X195720057Y-195157200D01*
X195791485Y-195228628D01*
X195862914Y-195157200D01*
X195791485Y-195085771D01*
X195791485Y-195228628D01*
X197148628Y-196514342D02*
X197005771Y-196585771D01*
X196720057Y-196585771D01*
X196577200Y-196514342D01*
X196505771Y-196442914D01*
X196434342Y-196300057D01*
X196434342Y-195871485D01*
X196505771Y-195728628D01*
X196577200Y-195657200D01*
X196720057Y-195585771D01*
X197005771Y-195585771D01*
X197148628Y-195657200D01*
X198434342Y-196585771D02*
X198434342Y-195800057D01*
X198362914Y-195657200D01*
X198220057Y-195585771D01*
X197934342Y-195585771D01*
X197791485Y-195657200D01*
X198434342Y-196514342D02*
X198291485Y-196585771D01*
X197934342Y-196585771D01*
X197791485Y-196514342D01*
X197720057Y-196371485D01*
X197720057Y-196228628D01*
X197791485Y-196085771D01*
X197934342Y-196014342D01*
X198291485Y-196014342D01*
X198434342Y-195942914D01*
X199791485Y-196585771D02*
X199791485Y-195085771D01*
X199791485Y-196514342D02*
X199648628Y-196585771D01*
X199362914Y-196585771D01*
X199220057Y-196514342D01*
X199148628Y-196442914D01*
X199077200Y-196300057D01*
X199077200Y-195871485D01*
X199148628Y-195728628D01*
X199220057Y-195657200D01*
X199362914Y-195585771D01*
X199648628Y-195585771D01*
X199791485Y-195657200D01*
X202362914Y-195085771D02*
X201648628Y-195085771D01*
X201577200Y-195800057D01*
X201648628Y-195728628D01*
X201791485Y-195657200D01*
X202148628Y-195657200D01*
X202291485Y-195728628D01*
X202362914Y-195800057D01*
X202434342Y-195942914D01*
X202434342Y-196300057D01*
X202362914Y-196442914D01*
X202291485Y-196514342D01*
X202148628Y-196585771D01*
X201791485Y-196585771D01*
X201648628Y-196514342D01*
X201577200Y-196442914D01*
X203077200Y-196442914D02*
X203148628Y-196514342D01*
X203077200Y-196585771D01*
X203005771Y-196514342D01*
X203077200Y-196442914D01*
X203077200Y-196585771D01*
X204577200Y-196585771D02*
X203720057Y-196585771D01*
X204148628Y-196585771D02*
X204148628Y-195085771D01*
X204005771Y-195300057D01*
X203862914Y-195442914D01*
X203720057Y-195514342D01*
X205220057Y-196442914D02*
X205291485Y-196514342D01*
X205220057Y-196585771D01*
X205148628Y-196514342D01*
X205220057Y-196442914D01*
X205220057Y-196585771D01*
X205862914Y-195228628D02*
X205934342Y-195157200D01*
X206077200Y-195085771D01*
X206434342Y-195085771D01*
X206577200Y-195157200D01*
X206648628Y-195228628D01*
X206720057Y-195371485D01*
X206720057Y-195514342D01*
X206648628Y-195728628D01*
X205791485Y-196585771D01*
X206720057Y-196585771D01*
D10*
D11*
X177002200Y-191507200D02*
X285002200Y-191507200D01*
D10*
D12*
X264411485Y-193785771D02*
X263911485Y-193071485D01*
X263554342Y-193785771D02*
X263554342Y-192285771D01*
X264125771Y-192285771D01*
X264268628Y-192357200D01*
X264340057Y-192428628D01*
X264411485Y-192571485D01*
X264411485Y-192785771D01*
X264340057Y-192928628D01*
X264268628Y-193000057D01*
X264125771Y-193071485D01*
X263554342Y-193071485D01*
X265625771Y-193714342D02*
X265482914Y-193785771D01*
X265197200Y-193785771D01*
X265054342Y-193714342D01*
X264982914Y-193571485D01*
X264982914Y-193000057D01*
X265054342Y-192857200D01*
X265197200Y-192785771D01*
X265482914Y-192785771D01*
X265625771Y-192857200D01*
X265697200Y-193000057D01*
X265697200Y-193142914D01*
X264982914Y-193285771D01*
X266197200Y-192785771D02*
X266554342Y-193785771D01*
X266911485Y-192785771D01*
X267482914Y-193642914D02*
X267554342Y-193714342D01*
X267482914Y-193785771D01*
X267411485Y-193714342D01*
X267482914Y-193642914D01*
X267482914Y-193785771D01*
X267482914Y-192857200D02*
X267554342Y-192928628D01*
X267482914Y-193000057D01*
X267411485Y-192928628D01*
X267482914Y-192857200D01*
X267482914Y-193000057D01*
X269340057Y-193785771D02*
X269340057Y-192285771D01*
X269911485Y-192285771D01*
X270054342Y-192357200D01*
X270125771Y-192428628D01*
X270197200Y-192571485D01*
X270197200Y-192785771D01*
X270125771Y-192928628D01*
X270054342Y-193000057D01*
X269911485Y-193071485D01*
X269340057Y-193071485D01*
X270840057Y-193785771D02*
X270840057Y-192785771D01*
X270840057Y-192285771D02*
X270768628Y-192357200D01*
X270840057Y-192428628D01*
X270911485Y-192357200D01*
X270840057Y-192285771D01*
X270840057Y-192428628D01*
X271411485Y-192785771D02*
X272197200Y-192785771D01*
X271411485Y-193785771D01*
X272197200Y-193785771D01*
X273411485Y-193785771D02*
X273411485Y-193000057D01*
X273340057Y-192857200D01*
X273197200Y-192785771D01*
X272911485Y-192785771D01*
X272768628Y-192857200D01*
X273411485Y-193714342D02*
X273268628Y-193785771D01*
X272911485Y-193785771D01*
X272768628Y-193714342D01*
X272697200Y-193571485D01*
X272697200Y-193428628D01*
X272768628Y-193285771D01*
X272911485Y-193214342D01*
X273268628Y-193214342D01*
X273411485Y-193142914D01*
X275197200Y-193357200D02*
X275911485Y-193357200D01*
X275054342Y-193785771D02*
X275554342Y-192285771D01*
X276054342Y-193785771D01*
X277340057Y-192357200D02*
X277197200Y-192285771D01*
X276982914Y-192285771D01*
X276768628Y-192357200D01*
X276625771Y-192500057D01*
X276554342Y-192642914D01*
X276482914Y-192928628D01*
X276482914Y-193142914D01*
X276554342Y-193428628D01*
X276625771Y-193571485D01*
X276768628Y-193714342D01*
X276982914Y-193785771D01*
X277125771Y-193785771D01*
X277340057Y-193714342D01*
X277411485Y-193642914D01*
X277411485Y-193142914D01*
X277125771Y-193142914D01*
D10*
D11*
X178362914Y-193714342D02*
X178577200Y-193785771D01*
X178934342Y-193785771D01*
X179077200Y-193714342D01*
X179148628Y-193642914D01*
X179220057Y-193500057D01*
X179220057Y-193357200D01*
X179148628Y-193214342D01*
X179077200Y-193142914D01*
X178934342Y-193071485D01*
X178648628Y-193000057D01*
X178505771Y-192928628D01*
X178434342Y-192857200D01*
X178362914Y-192714342D01*
X178362914Y-192571485D01*
X178434342Y-192428628D01*
X178505771Y-192357200D01*
X178648628Y-192285771D01*
X179005771Y-192285771D01*
X179220057Y-192357200D01*
X179862914Y-193785771D02*
X179862914Y-192785771D01*
X179862914Y-192285771D02*
X179791485Y-192357200D01*
X179862914Y-192428628D01*
X179934342Y-192357200D01*
X179862914Y-192285771D01*
X179862914Y-192428628D01*
X180434342Y-192785771D02*
X181220057Y-192785771D01*
X180434342Y-193785771D01*
X181220057Y-193785771D01*
X182362914Y-193714342D02*
X182220057Y-193785771D01*
X181934342Y-193785771D01*
X181791485Y-193714342D01*
X181720057Y-193571485D01*
X181720057Y-193000057D01*
X181791485Y-192857200D01*
X181934342Y-192785771D01*
X182220057Y-192785771D01*
X182362914Y-192857200D01*
X182434342Y-193000057D01*
X182434342Y-193142914D01*
X181720057Y-193285771D01*
X183077200Y-193642914D02*
X183148628Y-193714342D01*
X183077200Y-193785771D01*
X183005771Y-193714342D01*
X183077200Y-193642914D01*
X183077200Y-193785771D01*
X183077200Y-192857200D02*
X183148628Y-192928628D01*
X183077200Y-193000057D01*
X183005771Y-192928628D01*
X183077200Y-192857200D01*
X183077200Y-193000057D01*
X184862914Y-193357200D02*
X185577200Y-193357200D01*
X184720057Y-193785771D02*
X185220057Y-192285771D01*
X185720057Y-193785771D01*
X186862914Y-192785771D02*
X186862914Y-193785771D01*
X186505771Y-192214342D02*
X186148628Y-193285771D01*
X187077200Y-193285771D01*
D10*
D11*
X263434342Y-196585771D02*
X263434342Y-195085771D01*
X264791485Y-196585771D02*
X264791485Y-195085771D01*
X264791485Y-196514342D02*
X264648628Y-196585771D01*
X264362914Y-196585771D01*
X264220057Y-196514342D01*
X264148628Y-196442914D01*
X264077200Y-196300057D01*
X264077200Y-195871485D01*
X264148628Y-195728628D01*
X264220057Y-195657200D01*
X264362914Y-195585771D01*
X264648628Y-195585771D01*
X264791485Y-195657200D01*
X265505771Y-196442914D02*
X265577200Y-196514342D01*
X265505771Y-196585771D01*
X265434342Y-196514342D01*
X265505771Y-196442914D01*
X265505771Y-196585771D01*
X265505771Y-195657200D02*
X265577200Y-195728628D01*
X265505771Y-195800057D01*
X265434342Y-195728628D01*
X265505771Y-195657200D01*
X265505771Y-195800057D01*
X268148628Y-196585771D02*
X267291485Y-196585771D01*
X267720057Y-196585771D02*
X267720057Y-195085771D01*
X267577200Y-195300057D01*
X267434342Y-195442914D01*
X267291485Y-195514342D01*
X269862914Y-195014342D02*
X268577200Y-196942914D01*
X271148628Y-196585771D02*
X270291485Y-196585771D01*
X270720057Y-196585771D02*
X270720057Y-195085771D01*
X270577200Y-195300057D01*
X270434342Y-195442914D01*
X270291485Y-195514342D01*
D10*
D11*
X177002200Y-187507200D02*
X285002200Y-187507200D01*
D10*
D13*
X178714580Y-188211961D02*
X179857438Y-188211961D01*
X179036009Y-190211961D02*
X179286009Y-188211961D01*
X180274104Y-190211961D02*
X180440771Y-188878628D01*
X180524104Y-188211961D02*
X180416961Y-188307200D01*
X180500295Y-188402438D01*
X180607438Y-188307200D01*
X180524104Y-188211961D01*
X180500295Y-188402438D01*
X181107438Y-188878628D02*
X181869342Y-188878628D01*
X181476485Y-188211961D02*
X181262200Y-189926247D01*
X181333628Y-190116723D01*
X181512200Y-190211961D01*
X181702676Y-190211961D01*
X182655057Y-190211961D02*
X182476485Y-190116723D01*
X182405057Y-189926247D01*
X182619342Y-188211961D01*
X184190771Y-190116723D02*
X183988390Y-190211961D01*
X183607438Y-190211961D01*
X183428866Y-190116723D01*
X183357438Y-189926247D01*
X183452676Y-189164342D01*
X183571723Y-188973866D01*
X183774104Y-188878628D01*
X184155057Y-188878628D01*
X184333628Y-188973866D01*
X184405057Y-189164342D01*
X184381247Y-189354819D01*
X183405057Y-189545295D01*
X185155057Y-190021485D02*
X185238390Y-190116723D01*
X185131247Y-190211961D01*
X185047914Y-190116723D01*
X185155057Y-190021485D01*
X185131247Y-190211961D01*
X185286009Y-188973866D02*
X185369342Y-189069104D01*
X185262200Y-189164342D01*
X185178866Y-189069104D01*
X185286009Y-188973866D01*
X185262200Y-189164342D01*
X188750295Y-190211961D02*
X188202676Y-189259580D01*
X187607438Y-190211961D02*
X187857438Y-188211961D01*
X188619342Y-188211961D01*
X188797914Y-188307200D01*
X188881247Y-188402438D01*
X188952676Y-188592914D01*
X188916961Y-188878628D01*
X188797914Y-189069104D01*
X188690771Y-189164342D01*
X188488390Y-189259580D01*
X187726485Y-189259580D01*
X190381247Y-190116723D02*
X190178866Y-190211961D01*
X189797914Y-190211961D01*
X189619342Y-190116723D01*
X189547914Y-189926247D01*
X189643152Y-189164342D01*
X189762200Y-188973866D01*
X189964580Y-188878628D01*
X190345533Y-188878628D01*
X190524104Y-188973866D01*
X190595533Y-189164342D01*
X190571723Y-189354819D01*
X189595533Y-189545295D01*
X191488390Y-188878628D02*
X191238390Y-190878628D01*
X191476485Y-188973866D02*
X191678866Y-188878628D01*
X192059819Y-188878628D01*
X192238390Y-188973866D01*
X192321723Y-189069104D01*
X192393152Y-189259580D01*
X192321723Y-189831009D01*
X192202676Y-190021485D01*
X192095533Y-190116723D01*
X191893152Y-190211961D01*
X191512200Y-190211961D01*
X191333628Y-190116723D01*
X193416961Y-190211961D02*
X193238390Y-190116723D01*
X193166961Y-189926247D01*
X193381247Y-188211961D01*
X194178866Y-190211961D02*
X194345533Y-188878628D01*
X194428866Y-188211961D02*
X194321723Y-188307200D01*
X194405057Y-188402438D01*
X194512200Y-188307200D01*
X194428866Y-188211961D01*
X194405057Y-188402438D01*
X196000295Y-190116723D02*
X195797914Y-190211961D01*
X195416961Y-190211961D01*
X195238390Y-190116723D01*
X195155057Y-190021485D01*
X195083628Y-189831009D01*
X195155057Y-189259580D01*
X195274104Y-189069104D01*
X195381247Y-188973866D01*
X195583628Y-188878628D01*
X195964580Y-188878628D01*
X196143152Y-188973866D01*
X197702676Y-190211961D02*
X197833628Y-189164342D01*
X197762200Y-188973866D01*
X197583628Y-188878628D01*
X197202676Y-188878628D01*
X197000295Y-188973866D01*
X197714580Y-190116723D02*
X197512200Y-190211961D01*
X197036009Y-190211961D01*
X196857438Y-190116723D01*
X196786009Y-189926247D01*
X196809819Y-189735771D01*
X196928866Y-189545295D01*
X197131247Y-189450057D01*
X197607438Y-189450057D01*
X197809819Y-189354819D01*
X200309819Y-189164342D02*
X200976485Y-189164342D01*
X201131247Y-190211961D02*
X200178866Y-190211961D01*
X200428866Y-188211961D01*
X201381247Y-188211961D01*
X201905057Y-190116723D02*
X202178866Y-190211961D01*
X202655057Y-190211961D01*
X202857438Y-190116723D01*
X202964580Y-190021485D01*
X203083628Y-189831009D01*
X203107438Y-189640533D01*
X203036009Y-189450057D01*
X202952676Y-189354819D01*
X202774104Y-189259580D01*
X202405057Y-189164342D01*
X202226485Y-189069104D01*
X202143152Y-188973866D01*
X202071723Y-188783390D01*
X202095533Y-188592914D01*
X202214580Y-188402438D01*
X202321723Y-188307200D01*
X202524104Y-188211961D01*
X203000295Y-188211961D01*
X203274104Y-188307200D01*
X203893152Y-190211961D02*
X204143152Y-188211961D01*
X204905057Y-188211961D01*
X205083628Y-188307200D01*
X205166961Y-188402438D01*
X205238390Y-188592914D01*
X205202676Y-188878628D01*
X205083628Y-189069104D01*
X204976485Y-189164342D01*
X204774104Y-189259580D01*
X204012200Y-189259580D01*
X205952676Y-188211961D02*
X207190771Y-188211961D01*
X206428866Y-188973866D01*
X206714580Y-188973866D01*
X206893152Y-189069104D01*
X206976485Y-189164342D01*
X207047914Y-189354819D01*
X206988390Y-189831009D01*
X206869342Y-190021485D01*
X206762200Y-190116723D01*
X206559819Y-190211961D01*
X205988390Y-190211961D01*
X205809819Y-190116723D01*
X205726485Y-190021485D01*
X207928866Y-188402438D02*
X208036009Y-188307200D01*
X208238390Y-188211961D01*
X208714580Y-188211961D01*
X208893152Y-188307200D01*
X208976485Y-188402438D01*
X209047914Y-188592914D01*
X209024104Y-188783390D01*
X208893152Y-189069104D01*
X207607438Y-190211961D01*
X208845533Y-190211961D01*
X211190771Y-188211961D02*
X212333628Y-188211961D01*
X211512200Y-190211961D02*
X211762200Y-188211961D01*
X212750295Y-190211961D02*
X213000295Y-188211961D01*
X213607438Y-190211961D02*
X213738390Y-189164342D01*
X213666961Y-188973866D01*
X213488390Y-188878628D01*
X213202676Y-188878628D01*
X213000295Y-188973866D01*
X212893152Y-189069104D01*
X214559819Y-190211961D02*
X214726485Y-188878628D01*
X214809819Y-188211961D02*
X214702676Y-188307200D01*
X214786009Y-188402438D01*
X214893152Y-188307200D01*
X214809819Y-188211961D01*
X214786009Y-188402438D01*
X215678866Y-188878628D02*
X215512200Y-190211961D01*
X215655057Y-189069104D02*
X215762200Y-188973866D01*
X215964580Y-188878628D01*
X216250295Y-188878628D01*
X216428866Y-188973866D01*
X216500295Y-189164342D01*
X216369342Y-190211961D01*
X218345533Y-188878628D02*
X218143152Y-190497676D01*
X218024104Y-190688152D01*
X217916961Y-190783390D01*
X217714580Y-190878628D01*
X217428866Y-190878628D01*
X217250295Y-190783390D01*
X218190771Y-190116723D02*
X217988390Y-190211961D01*
X217607438Y-190211961D01*
X217428866Y-190116723D01*
X217345533Y-190021485D01*
X217274104Y-189831009D01*
X217345533Y-189259580D01*
X217464580Y-189069104D01*
X217571723Y-188973866D01*
X217774104Y-188878628D01*
X218155057Y-188878628D01*
X218333628Y-188973866D01*
X220750295Y-189450057D02*
X222274104Y-189450057D01*
X224655057Y-190211961D02*
X224905057Y-188211961D01*
X225666961Y-188211961D01*
X225845533Y-188307200D01*
X225928866Y-188402438D01*
X226000295Y-188592914D01*
X225964580Y-188878628D01*
X225845533Y-189069104D01*
X225738390Y-189164342D01*
X225536009Y-189259580D01*
X224774104Y-189259580D01*
X227821723Y-190021485D02*
X227714580Y-190116723D01*
X227416961Y-190211961D01*
X227226485Y-190211961D01*
X226952676Y-190116723D01*
X226786009Y-189926247D01*
X226714580Y-189735771D01*
X226666961Y-189354819D01*
X226702676Y-189069104D01*
X226845533Y-188688152D01*
X226964580Y-188497676D01*
X227178866Y-188307200D01*
X227476485Y-188211961D01*
X227666961Y-188211961D01*
X227940771Y-188307200D01*
X228024104Y-188402438D01*
X229452676Y-189164342D02*
X229726485Y-189259580D01*
X229809819Y-189354819D01*
X229881247Y-189545295D01*
X229845533Y-189831009D01*
X229726485Y-190021485D01*
X229619342Y-190116723D01*
X229416961Y-190211961D01*
X228655057Y-190211961D01*
X228905057Y-188211961D01*
X229571723Y-188211961D01*
X229750295Y-188307200D01*
X229833628Y-188402438D01*
X229905057Y-188592914D01*
X229881247Y-188783390D01*
X229762199Y-188973866D01*
X229655057Y-189069104D01*
X229452676Y-189164342D01*
X228786009Y-189164342D01*
D10*
D11*
X178934342Y-185600057D02*
X178434342Y-185600057D01*
X178434342Y-186385771D02*
X178434342Y-184885771D01*
X179148628Y-184885771D01*
X179720057Y-186385771D02*
X179720057Y-185385771D01*
X179720057Y-184885771D02*
X179648628Y-184957200D01*
X179720057Y-185028628D01*
X179791485Y-184957200D01*
X179720057Y-184885771D01*
X179720057Y-185028628D01*
X180648628Y-186385771D02*
X180505771Y-186314342D01*
X180434342Y-186171485D01*
X180434342Y-184885771D01*
X181791485Y-186314342D02*
X181648628Y-186385771D01*
X181362914Y-186385771D01*
X181220057Y-186314342D01*
X181148628Y-186171485D01*
X181148628Y-185600057D01*
X181220057Y-185457200D01*
X181362914Y-185385771D01*
X181648628Y-185385771D01*
X181791485Y-185457200D01*
X181862914Y-185600057D01*
X181862914Y-185742914D01*
X181148628Y-185885771D01*
X182505771Y-186242914D02*
X182577200Y-186314342D01*
X182505771Y-186385771D01*
X182434342Y-186314342D01*
X182505771Y-186242914D01*
X182505771Y-186385771D01*
X182505771Y-185457200D02*
X182577200Y-185528628D01*
X182505771Y-185600057D01*
X182434342Y-185528628D01*
X182505771Y-185457200D01*
X182505771Y-185600057D01*
X184577200Y-186385771D02*
X184434342Y-186314342D01*
X184362914Y-186171485D01*
X184362914Y-184885771D01*
X185791485Y-185385771D02*
X185791485Y-186385771D01*
X185148628Y-185385771D02*
X185148628Y-186171485D01*
X185220057Y-186314342D01*
X185362914Y-186385771D01*
X185577200Y-186385771D01*
X185720057Y-186314342D01*
X185791485Y-186242914D01*
X187148628Y-186314342D02*
X187005771Y-186385771D01*
X186720057Y-186385771D01*
X186577200Y-186314342D01*
X186505771Y-186242914D01*
X186434342Y-186100057D01*
X186434342Y-185671485D01*
X186505771Y-185528628D01*
X186577200Y-185457200D01*
X186720057Y-185385771D01*
X187005771Y-185385771D01*
X187148628Y-185457200D01*
X187791485Y-186385771D02*
X187791485Y-185385771D01*
X187791485Y-184885771D02*
X187720057Y-184957200D01*
X187791485Y-185028628D01*
X187862914Y-184957200D01*
X187791485Y-184885771D01*
X187791485Y-185028628D01*
X189148628Y-186385771D02*
X189148628Y-185600057D01*
X189077200Y-185457200D01*
X188934342Y-185385771D01*
X188648628Y-185385771D01*
X188505771Y-185457200D01*
X189148628Y-186314342D02*
X189005771Y-186385771D01*
X188648628Y-186385771D01*
X188505771Y-186314342D01*
X188434342Y-186171485D01*
X188434342Y-186028628D01*
X188505771Y-185885771D01*
X188648628Y-185814342D01*
X189005771Y-185814342D01*
X189148628Y-185742914D01*
X189862914Y-185385771D02*
X189862914Y-186385771D01*
X189862914Y-185528628D02*
X189934342Y-185457200D01*
X190077200Y-185385771D01*
X190291485Y-185385771D01*
X190434342Y-185457200D01*
X190505771Y-185600057D01*
X190505771Y-186385771D01*
X191220057Y-185385771D02*
X191220057Y-186385771D01*
X191220057Y-185528628D02*
X191291485Y-185457200D01*
X191434342Y-185385771D01*
X191648628Y-185385771D01*
X191791485Y-185457200D01*
X191862914Y-185600057D01*
X191862914Y-186385771D01*
X193220057Y-186385771D02*
X193220057Y-185600057D01*
X193148628Y-185457200D01*
X193005771Y-185385771D01*
X192720057Y-185385771D01*
X192577200Y-185457200D01*
X193220057Y-186314342D02*
X193077200Y-186385771D01*
X192720057Y-186385771D01*
X192577200Y-186314342D01*
X192505771Y-186171485D01*
X192505771Y-186028628D01*
X192577200Y-185885771D01*
X192720057Y-185814342D01*
X193077200Y-185814342D01*
X193220057Y-185742914D01*
X194434342Y-185600057D02*
X193934342Y-185600057D01*
X193934342Y-186385771D02*
X193934342Y-184885771D01*
X194648628Y-184885771D01*
X195862914Y-186385771D02*
X195862914Y-185600057D01*
X195791485Y-185457200D01*
X195648628Y-185385771D01*
X195362914Y-185385771D01*
X195220057Y-185457200D01*
X195862914Y-186314342D02*
X195720057Y-186385771D01*
X195362914Y-186385771D01*
X195220057Y-186314342D01*
X195148628Y-186171485D01*
X195148628Y-186028628D01*
X195220057Y-185885771D01*
X195362914Y-185814342D01*
X195720057Y-185814342D01*
X195862914Y-185742914D01*
X197220057Y-186314342D02*
X197077200Y-186385771D01*
X196791485Y-186385771D01*
X196648628Y-186314342D01*
X196577200Y-186242914D01*
X196505771Y-186100057D01*
X196505771Y-185671485D01*
X196577200Y-185528628D01*
X196648628Y-185457200D01*
X196791485Y-185385771D01*
X197077200Y-185385771D01*
X197220057Y-185457200D01*
X198505771Y-185385771D02*
X198505771Y-186385771D01*
X197862914Y-185385771D02*
X197862914Y-186171485D01*
X197934342Y-186314342D01*
X198077200Y-186385771D01*
X198291485Y-186385771D01*
X198434342Y-186314342D01*
X198505771Y-186242914D01*
X199220057Y-185385771D02*
X199220057Y-186385771D01*
X199220057Y-185528628D02*
X199291485Y-185457200D01*
X199434342Y-185385771D01*
X199648628Y-185385771D01*
X199791485Y-185457200D01*
X199862914Y-185600057D01*
X199862914Y-186385771D01*
X201220057Y-186385771D02*
X201220057Y-184885771D01*
X201220057Y-186314342D02*
X201077200Y-186385771D01*
X200791485Y-186385771D01*
X200648628Y-186314342D01*
X200577200Y-186242914D01*
X200505771Y-186100057D01*
X200505771Y-185671485D01*
X200577200Y-185528628D01*
X200648628Y-185457200D01*
X200791485Y-185385771D01*
X201077200Y-185385771D01*
X201220057Y-185457200D01*
X202148628Y-186385771D02*
X202005771Y-186314342D01*
X201934342Y-186242914D01*
X201862914Y-186100057D01*
X201862914Y-185671485D01*
X201934342Y-185528628D01*
X202005771Y-185457200D01*
X202148628Y-185385771D01*
X202362914Y-185385771D01*
X202505771Y-185457200D01*
X202577200Y-185528628D01*
X202648628Y-185671485D01*
X202648628Y-186100057D01*
X202577200Y-186242914D01*
X202505771Y-186314342D01*
X202362914Y-186385771D01*
X202148628Y-186385771D01*
X203291485Y-186242914D02*
X203362914Y-186314342D01*
X203291485Y-186385771D01*
X203220057Y-186314342D01*
X203291485Y-186242914D01*
X203291485Y-186385771D01*
X204005771Y-186385771D02*
X204005771Y-184885771D01*
X204148628Y-185814342D02*
X204577200Y-186385771D01*
X204577200Y-185385771D02*
X204005771Y-185957200D01*
X205220057Y-186385771D02*
X205220057Y-185385771D01*
X205220057Y-184885771D02*
X205148628Y-184957200D01*
X205220057Y-185028628D01*
X205291485Y-184957200D01*
X205220057Y-184885771D01*
X205220057Y-185028628D01*
X206577200Y-186314342D02*
X206434342Y-186385771D01*
X206148628Y-186385771D01*
X206005771Y-186314342D01*
X205934342Y-186242914D01*
X205862914Y-186100057D01*
X205862914Y-185671485D01*
X205934342Y-185528628D01*
X206005771Y-185457200D01*
X206148628Y-185385771D01*
X206434342Y-185385771D01*
X206577200Y-185457200D01*
X207862914Y-186385771D02*
X207862914Y-185600057D01*
X207791485Y-185457200D01*
X207648628Y-185385771D01*
X207362914Y-185385771D01*
X207220057Y-185457200D01*
X207862914Y-186314342D02*
X207720057Y-186385771D01*
X207362914Y-186385771D01*
X207220057Y-186314342D01*
X207148628Y-186171485D01*
X207148628Y-186028628D01*
X207220057Y-185885771D01*
X207362914Y-185814342D01*
X207720057Y-185814342D01*
X207862914Y-185742914D01*
X209220057Y-186385771D02*
X209220057Y-184885771D01*
X209220057Y-186314342D02*
X209077200Y-186385771D01*
X208791485Y-186385771D01*
X208648628Y-186314342D01*
X208577200Y-186242914D01*
X208505771Y-186100057D01*
X208505771Y-185671485D01*
X208577200Y-185528628D01*
X208648628Y-185457200D01*
X208791485Y-185385771D01*
X209077200Y-185385771D01*
X209220057Y-185457200D01*
X209577200Y-186528628D02*
X210720057Y-186528628D01*
X211077200Y-185385771D02*
X211077200Y-186885771D01*
X211077200Y-185457200D02*
X211220057Y-185385771D01*
X211505771Y-185385771D01*
X211648628Y-185457200D01*
X211720057Y-185528628D01*
X211791485Y-185671485D01*
X211791485Y-186100057D01*
X211720057Y-186242914D01*
X211648628Y-186314342D01*
X211505771Y-186385771D01*
X211220057Y-186385771D01*
X211077200Y-186314342D01*
X213077200Y-186314342D02*
X212934342Y-186385771D01*
X212648628Y-186385771D01*
X212505771Y-186314342D01*
X212434342Y-186242914D01*
X212362914Y-186100057D01*
X212362914Y-185671485D01*
X212434342Y-185528628D01*
X212505771Y-185457200D01*
X212648628Y-185385771D01*
X212934342Y-185385771D01*
X213077200Y-185457200D01*
X213720057Y-186385771D02*
X213720057Y-184885771D01*
X213720057Y-185457200D02*
X213862914Y-185385771D01*
X214148628Y-185385771D01*
X214291485Y-185457200D01*
X214362914Y-185528628D01*
X214434342Y-185671485D01*
X214434342Y-186100057D01*
X214362914Y-186242914D01*
X214291485Y-186314342D01*
X214148628Y-186385771D01*
X213862914Y-186385771D01*
X213720057Y-186314342D01*
D10*
D11*
X177002200Y-181507200D02*
X285002200Y-181507200D01*
D10*
D11*
X178362914Y-183614342D02*
X178577200Y-183685771D01*
X178934342Y-183685771D01*
X179077200Y-183614342D01*
X179148628Y-183542914D01*
X179220057Y-183400057D01*
X179220057Y-183257200D01*
X179148628Y-183114342D01*
X179077200Y-183042914D01*
X178934342Y-182971485D01*
X178648628Y-182900057D01*
X178505771Y-182828628D01*
X178434342Y-182757200D01*
X178362914Y-182614342D01*
X178362914Y-182471485D01*
X178434342Y-182328628D01*
X178505771Y-182257200D01*
X178648628Y-182185771D01*
X179005771Y-182185771D01*
X179220057Y-182257200D01*
X179862914Y-183685771D02*
X179862914Y-182185771D01*
X180505771Y-183685771D02*
X180505771Y-182900057D01*
X180434342Y-182757200D01*
X180291485Y-182685771D01*
X180077200Y-182685771D01*
X179934342Y-182757200D01*
X179862914Y-182828628D01*
X181791485Y-183614342D02*
X181648628Y-183685771D01*
X181362914Y-183685771D01*
X181220057Y-183614342D01*
X181148628Y-183471485D01*
X181148628Y-182900057D01*
X181220057Y-182757200D01*
X181362914Y-182685771D01*
X181648628Y-182685771D01*
X181791485Y-182757200D01*
X181862914Y-182900057D01*
X181862914Y-183042914D01*
X181148628Y-183185771D01*
X183077200Y-183614342D02*
X182934342Y-183685771D01*
X182648628Y-183685771D01*
X182505771Y-183614342D01*
X182434342Y-183471485D01*
X182434342Y-182900057D01*
X182505771Y-182757200D01*
X182648628Y-182685771D01*
X182934342Y-182685771D01*
X183077200Y-182757200D01*
X183148628Y-182900057D01*
X183148628Y-183042914D01*
X182434342Y-183185771D01*
X183577200Y-182685771D02*
X184148628Y-182685771D01*
X183791485Y-182185771D02*
X183791485Y-183471485D01*
X183862914Y-183614342D01*
X184005771Y-183685771D01*
X184148628Y-183685771D01*
X184648628Y-183542914D02*
X184720057Y-183614342D01*
X184648628Y-183685771D01*
X184577200Y-183614342D01*
X184648628Y-183542914D01*
X184648628Y-183685771D01*
X184648628Y-182757200D02*
X184720057Y-182828628D01*
X184648628Y-182900057D01*
X184577200Y-182828628D01*
X184648628Y-182757200D01*
X184648628Y-182900057D01*
D10*
D12*
X179054342Y-179900057D02*
X178554342Y-179900057D01*
X178554342Y-180685771D02*
X178554342Y-179185771D01*
X179268628Y-179185771D01*
X180482914Y-180685771D02*
X180482914Y-179900057D01*
X180411485Y-179757200D01*
X180268628Y-179685771D01*
X179982914Y-179685771D01*
X179840057Y-179757200D01*
X180482914Y-180614342D02*
X180340057Y-180685771D01*
X179982914Y-180685771D01*
X179840057Y-180614342D01*
X179768628Y-180471485D01*
X179768628Y-180328628D01*
X179840057Y-180185771D01*
X179982914Y-180114342D01*
X180340057Y-180114342D01*
X180482914Y-180042914D01*
X181840057Y-180614342D02*
X181697200Y-180685771D01*
X181411485Y-180685771D01*
X181268628Y-180614342D01*
X181197200Y-180542914D01*
X181125771Y-180400057D01*
X181125771Y-179971485D01*
X181197200Y-179828628D01*
X181268628Y-179757200D01*
X181411485Y-179685771D01*
X181697200Y-179685771D01*
X181840057Y-179757200D01*
X183125771Y-179685771D02*
X183125771Y-180685771D01*
X182482914Y-179685771D02*
X182482914Y-180471485D01*
X182554342Y-180614342D01*
X182697200Y-180685771D01*
X182911485Y-180685771D01*
X183054342Y-180614342D01*
X183125771Y-180542914D01*
X183840057Y-179685771D02*
X183840057Y-180685771D01*
X183840057Y-179828628D02*
X183911485Y-179757200D01*
X184054342Y-179685771D01*
X184268628Y-179685771D01*
X184411485Y-179757200D01*
X184482914Y-179900057D01*
X184482914Y-180685771D01*
X185840057Y-180685771D02*
X185840057Y-179185771D01*
X185840057Y-180614342D02*
X185697200Y-180685771D01*
X185411485Y-180685771D01*
X185268628Y-180614342D01*
X185197200Y-180542914D01*
X185125771Y-180400057D01*
X185125771Y-179971485D01*
X185197200Y-179828628D01*
X185268628Y-179757200D01*
X185411485Y-179685771D01*
X185697200Y-179685771D01*
X185840057Y-179757200D01*
X186768628Y-180685771D02*
X186625771Y-180614342D01*
X186554342Y-180542914D01*
X186482914Y-180400057D01*
X186482914Y-179971485D01*
X186554342Y-179828628D01*
X186625771Y-179757200D01*
X186768628Y-179685771D01*
X186982914Y-179685771D01*
X187125771Y-179757200D01*
X187197200Y-179828628D01*
X187268628Y-179971485D01*
X187268628Y-180400057D01*
X187197200Y-180542914D01*
X187125771Y-180614342D01*
X186982914Y-180685771D01*
X186768628Y-180685771D01*
X188982914Y-180257200D02*
X189697200Y-180257200D01*
X188840057Y-180685771D02*
X189340057Y-179185771D01*
X189840057Y-180685771D01*
X192197200Y-180685771D02*
X191482914Y-180685771D01*
X191482914Y-179185771D01*
X193340057Y-179685771D02*
X193340057Y-180685771D01*
X192697200Y-179685771D02*
X192697200Y-180471485D01*
X192768628Y-180614342D01*
X192911485Y-180685771D01*
X193125771Y-180685771D01*
X193268628Y-180614342D01*
X193340057Y-180542914D01*
X194697200Y-180614342D02*
X194554342Y-180685771D01*
X194268628Y-180685771D01*
X194125771Y-180614342D01*
X194054342Y-180542914D01*
X193982914Y-180400057D01*
X193982914Y-179971485D01*
X194054342Y-179828628D01*
X194125771Y-179757200D01*
X194268628Y-179685771D01*
X194554342Y-179685771D01*
X194697200Y-179757200D01*
X195340057Y-180685771D02*
X195340057Y-179685771D01*
X195340057Y-179185771D02*
X195268628Y-179257200D01*
X195340057Y-179328628D01*
X195411485Y-179257200D01*
X195340057Y-179185771D01*
X195340057Y-179328628D01*
X196697200Y-180685771D02*
X196697200Y-179900057D01*
X196625771Y-179757200D01*
X196482914Y-179685771D01*
X196197200Y-179685771D01*
X196054342Y-179757200D01*
X196697200Y-180614342D02*
X196554342Y-180685771D01*
X196197200Y-180685771D01*
X196054342Y-180614342D01*
X195982914Y-180471485D01*
X195982914Y-180328628D01*
X196054342Y-180185771D01*
X196197200Y-180114342D01*
X196554342Y-180114342D01*
X196697200Y-180042914D01*
X197411485Y-179685771D02*
X197411485Y-180685771D01*
X197411485Y-179828628D02*
X197482914Y-179757200D01*
X197625771Y-179685771D01*
X197840057Y-179685771D01*
X197982914Y-179757200D01*
X198054342Y-179900057D01*
X198054342Y-180685771D01*
X198768628Y-179685771D02*
X198768628Y-180685771D01*
X198768628Y-179828628D02*
X198840057Y-179757200D01*
X198982914Y-179685771D01*
X199197200Y-179685771D01*
X199340057Y-179757200D01*
X199411485Y-179900057D01*
X199411485Y-180685771D01*
X200768628Y-180685771D02*
X200768628Y-179900057D01*
X200697200Y-179757200D01*
X200554342Y-179685771D01*
X200268628Y-179685771D01*
X200125771Y-179757200D01*
X200768628Y-180614342D02*
X200625771Y-180685771D01*
X200268628Y-180685771D01*
X200125771Y-180614342D01*
X200054342Y-180471485D01*
X200054342Y-180328628D01*
X200125771Y-180185771D01*
X200268628Y-180114342D01*
X200625771Y-180114342D01*
X200768628Y-180042914D01*
D10*
D11*
X178434342Y-177685771D02*
X178434342Y-176185771D01*
X179077200Y-177685771D02*
X179077200Y-176900057D01*
X179005771Y-176757200D01*
X178862914Y-176685771D01*
X178648628Y-176685771D01*
X178505771Y-176757200D01*
X178434342Y-176828628D01*
X179577200Y-176685771D02*
X180148628Y-176685771D01*
X179791485Y-176185771D02*
X179791485Y-177471485D01*
X179862914Y-177614342D01*
X180005771Y-177685771D01*
X180148628Y-177685771D01*
X180434342Y-176685771D02*
X181005771Y-176685771D01*
X180648628Y-176185771D02*
X180648628Y-177471485D01*
X180720057Y-177614342D01*
X180862914Y-177685771D01*
X181005771Y-177685771D01*
X181505771Y-176685771D02*
X181505771Y-178185771D01*
X181505771Y-176757200D02*
X181648628Y-176685771D01*
X181934342Y-176685771D01*
X182077200Y-176757200D01*
X182148628Y-176828628D01*
X182220057Y-176971485D01*
X182220057Y-177400057D01*
X182148628Y-177542914D01*
X182077200Y-177614342D01*
X181934342Y-177685771D01*
X181648628Y-177685771D01*
X181505771Y-177614342D01*
X182791485Y-177614342D02*
X182934342Y-177685771D01*
X183220057Y-177685771D01*
X183362914Y-177614342D01*
X183434342Y-177471485D01*
X183434342Y-177400057D01*
X183362914Y-177257200D01*
X183220057Y-177185771D01*
X183005771Y-177185771D01*
X182862914Y-177114342D01*
X182791485Y-176971485D01*
X182791485Y-176900057D01*
X182862914Y-176757200D01*
X183005771Y-176685771D01*
X183220057Y-176685771D01*
X183362914Y-176757200D01*
X184077200Y-177542914D02*
X184148628Y-177614342D01*
X184077200Y-177685771D01*
X184005771Y-177614342D01*
X184077200Y-177542914D01*
X184077200Y-177685771D01*
X184077200Y-176757200D02*
X184148628Y-176828628D01*
X184077200Y-176900057D01*
X184005771Y-176828628D01*
X184077200Y-176757200D01*
X184077200Y-176900057D01*
X185862914Y-176114342D02*
X184577200Y-178042914D01*
X187434342Y-176114342D02*
X186148628Y-178042914D01*
X188577200Y-177614342D02*
X188434342Y-177685771D01*
X188148628Y-177685771D01*
X188005771Y-177614342D01*
X187934342Y-177542914D01*
X187862914Y-177400057D01*
X187862914Y-176971485D01*
X187934342Y-176828628D01*
X188005771Y-176757200D01*
X188148628Y-176685771D01*
X188434342Y-176685771D01*
X188577200Y-176757200D01*
X189220057Y-177685771D02*
X189220057Y-176685771D01*
X189220057Y-176971485D02*
X189291485Y-176828628D01*
X189362914Y-176757200D01*
X189505771Y-176685771D01*
X189648628Y-176685771D01*
X190720057Y-177614342D02*
X190577200Y-177685771D01*
X190291485Y-177685771D01*
X190148628Y-177614342D01*
X190077200Y-177471485D01*
X190077200Y-176900057D01*
X190148628Y-176757200D01*
X190291485Y-176685771D01*
X190577200Y-176685771D01*
X190720057Y-176757200D01*
X190791485Y-176900057D01*
X190791485Y-177042914D01*
X190077200Y-177185771D01*
X192077200Y-177685771D02*
X192077200Y-176900057D01*
X192005771Y-176757200D01*
X191862914Y-176685771D01*
X191577200Y-176685771D01*
X191434342Y-176757200D01*
X192077200Y-177614342D02*
X191934342Y-177685771D01*
X191577200Y-177685771D01*
X191434342Y-177614342D01*
X191362914Y-177471485D01*
X191362914Y-177328628D01*
X191434342Y-177185771D01*
X191577200Y-177114342D01*
X191934342Y-177114342D01*
X192077200Y-177042914D01*
X192577200Y-176685771D02*
X193148628Y-176685771D01*
X192791485Y-176185771D02*
X192791485Y-177471485D01*
X192862914Y-177614342D01*
X193005771Y-177685771D01*
X193148628Y-177685771D01*
X193648628Y-177685771D02*
X193648628Y-176685771D01*
X193648628Y-176185771D02*
X193577200Y-176257200D01*
X193648628Y-176328628D01*
X193720057Y-176257200D01*
X193648628Y-176185771D01*
X193648628Y-176328628D01*
X194220057Y-176685771D02*
X194577200Y-177685771D01*
X194934342Y-176685771D01*
X196077200Y-177614342D02*
X195934342Y-177685771D01*
X195648628Y-177685771D01*
X195505771Y-177614342D01*
X195434342Y-177471485D01*
X195434342Y-176900057D01*
X195505771Y-176757200D01*
X195648628Y-176685771D01*
X195934342Y-176685771D01*
X196077200Y-176757200D01*
X196148628Y-176900057D01*
X196148628Y-177042914D01*
X195434342Y-177185771D01*
X197434342Y-177614342D02*
X197291485Y-177685771D01*
X197005771Y-177685771D01*
X196862914Y-177614342D01*
X196791485Y-177542914D01*
X196720057Y-177400057D01*
X196720057Y-176971485D01*
X196791485Y-176828628D01*
X196862914Y-176757200D01*
X197005771Y-176685771D01*
X197291485Y-176685771D01*
X197434342Y-176757200D01*
X198291485Y-177685771D02*
X198148628Y-177614342D01*
X198077200Y-177542914D01*
X198005771Y-177400057D01*
X198005771Y-176971485D01*
X198077200Y-176828628D01*
X198148628Y-176757200D01*
X198291485Y-176685771D01*
X198505771Y-176685771D01*
X198648628Y-176757200D01*
X198720057Y-176828628D01*
X198791485Y-176971485D01*
X198791485Y-177400057D01*
X198720057Y-177542914D01*
X198648628Y-177614342D01*
X198505771Y-177685771D01*
X198291485Y-177685771D01*
X199434342Y-177685771D02*
X199434342Y-176685771D01*
X199434342Y-176828628D02*
X199505771Y-176757200D01*
X199648628Y-176685771D01*
X199862914Y-176685771D01*
X200005771Y-176757200D01*
X200077200Y-176900057D01*
X200077200Y-177685771D01*
X200077200Y-176900057D02*
X200148628Y-176757200D01*
X200291485Y-176685771D01*
X200505771Y-176685771D01*
X200648628Y-176757200D01*
X200720057Y-176900057D01*
X200720057Y-177685771D01*
X201434342Y-177685771D02*
X201434342Y-176685771D01*
X201434342Y-176828628D02*
X201505771Y-176757200D01*
X201648628Y-176685771D01*
X201862914Y-176685771D01*
X202005771Y-176757200D01*
X202077200Y-176900057D01*
X202077200Y-177685771D01*
X202077200Y-176900057D02*
X202148628Y-176757200D01*
X202291485Y-176685771D01*
X202505771Y-176685771D01*
X202648628Y-176757200D01*
X202720057Y-176900057D01*
X202720057Y-177685771D01*
X203648628Y-177685771D02*
X203505771Y-177614342D01*
X203434342Y-177542914D01*
X203362914Y-177400057D01*
X203362914Y-176971485D01*
X203434342Y-176828628D01*
X203505771Y-176757200D01*
X203648628Y-176685771D01*
X203862914Y-176685771D01*
X204005771Y-176757200D01*
X204077200Y-176828628D01*
X204148628Y-176971485D01*
X204148628Y-177400057D01*
X204077200Y-177542914D01*
X204005771Y-177614342D01*
X203862914Y-177685771D01*
X203648628Y-177685771D01*
X204791485Y-176685771D02*
X204791485Y-177685771D01*
X204791485Y-176828628D02*
X204862914Y-176757200D01*
X205005771Y-176685771D01*
X205220057Y-176685771D01*
X205362914Y-176757200D01*
X205434342Y-176900057D01*
X205434342Y-177685771D01*
X206077200Y-177614342D02*
X206220057Y-177685771D01*
X206505771Y-177685771D01*
X206648628Y-177614342D01*
X206720057Y-177471485D01*
X206720057Y-177400057D01*
X206648628Y-177257200D01*
X206505771Y-177185771D01*
X206291485Y-177185771D01*
X206148628Y-177114342D01*
X206077200Y-176971485D01*
X206077200Y-176900057D01*
X206148628Y-176757200D01*
X206291485Y-176685771D01*
X206505771Y-176685771D01*
X206648628Y-176757200D01*
X207362914Y-177542914D02*
X207434342Y-177614342D01*
X207362914Y-177685771D01*
X207291485Y-177614342D01*
X207362914Y-177542914D01*
X207362914Y-177685771D01*
X208291485Y-177685771D02*
X208148628Y-177614342D01*
X208077200Y-177542914D01*
X208005771Y-177400057D01*
X208005771Y-176971485D01*
X208077200Y-176828628D01*
X208148628Y-176757200D01*
X208291485Y-176685771D01*
X208505771Y-176685771D01*
X208648628Y-176757200D01*
X208720057Y-176828628D01*
X208791485Y-176971485D01*
X208791485Y-177400057D01*
X208720057Y-177542914D01*
X208648628Y-177614342D01*
X208505771Y-177685771D01*
X208291485Y-177685771D01*
X209434342Y-177685771D02*
X209434342Y-176685771D01*
X209434342Y-176971485D02*
X209505771Y-176828628D01*
X209577200Y-176757200D01*
X209720057Y-176685771D01*
X209862914Y-176685771D01*
X211005771Y-176685771D02*
X211005771Y-177900057D01*
X210934342Y-178042914D01*
X210862914Y-178114342D01*
X210720057Y-178185771D01*
X210505771Y-178185771D01*
X210362914Y-178114342D01*
X211005771Y-177614342D02*
X210862914Y-177685771D01*
X210577200Y-177685771D01*
X210434342Y-177614342D01*
X210362914Y-177542914D01*
X210291485Y-177400057D01*
X210291485Y-176971485D01*
X210362914Y-176828628D01*
X210434342Y-176757200D01*
X210577200Y-176685771D01*
X210862914Y-176685771D01*
X211005771Y-176757200D01*
X212791485Y-176114342D02*
X211505771Y-178042914D01*
X213505771Y-177685771D02*
X213362914Y-177614342D01*
X213291485Y-177471485D01*
X213291485Y-176185771D01*
X214077200Y-177685771D02*
X214077200Y-176685771D01*
X214077200Y-176185771D02*
X214005771Y-176257200D01*
X214077200Y-176328628D01*
X214148628Y-176257200D01*
X214077200Y-176185771D01*
X214077200Y-176328628D01*
X215434342Y-177614342D02*
X215291485Y-177685771D01*
X215005771Y-177685771D01*
X214862914Y-177614342D01*
X214791485Y-177542914D01*
X214720057Y-177400057D01*
X214720057Y-176971485D01*
X214791485Y-176828628D01*
X214862914Y-176757200D01*
X215005771Y-176685771D01*
X215291485Y-176685771D01*
X215434342Y-176757200D01*
X216648628Y-177614342D02*
X216505771Y-177685771D01*
X216220057Y-177685771D01*
X216077200Y-177614342D01*
X216005771Y-177471485D01*
X216005771Y-176900057D01*
X216077200Y-176757200D01*
X216220057Y-176685771D01*
X216505771Y-176685771D01*
X216648628Y-176757200D01*
X216720057Y-176900057D01*
X216720057Y-177042914D01*
X216005771Y-177185771D01*
X217362914Y-176685771D02*
X217362914Y-177685771D01*
X217362914Y-176828628D02*
X217434342Y-176757200D01*
X217577200Y-176685771D01*
X217791485Y-176685771D01*
X217934342Y-176757200D01*
X218005771Y-176900057D01*
X218005771Y-177685771D01*
X218648628Y-177614342D02*
X218791485Y-177685771D01*
X219077200Y-177685771D01*
X219220057Y-177614342D01*
X219291485Y-177471485D01*
X219291485Y-177400057D01*
X219220057Y-177257200D01*
X219077200Y-177185771D01*
X218862914Y-177185771D01*
X218720057Y-177114342D01*
X218648628Y-176971485D01*
X218648628Y-176900057D01*
X218720057Y-176757200D01*
X218862914Y-176685771D01*
X219077200Y-176685771D01*
X219220057Y-176757200D01*
X220505771Y-177614342D02*
X220362914Y-177685771D01*
X220077200Y-177685771D01*
X219934342Y-177614342D01*
X219862914Y-177471485D01*
X219862914Y-176900057D01*
X219934342Y-176757200D01*
X220077200Y-176685771D01*
X220362914Y-176685771D01*
X220505771Y-176757200D01*
X220577200Y-176900057D01*
X220577200Y-177042914D01*
X219862914Y-177185771D01*
X221148628Y-177614342D02*
X221291485Y-177685771D01*
X221577200Y-177685771D01*
X221720057Y-177614342D01*
X221791485Y-177471485D01*
X221791485Y-177400057D01*
X221720057Y-177257200D01*
X221577200Y-177185771D01*
X221362914Y-177185771D01*
X221220057Y-177114342D01*
X221148628Y-176971485D01*
X221148628Y-176900057D01*
X221220057Y-176757200D01*
X221362914Y-176685771D01*
X221577200Y-176685771D01*
X221720057Y-176757200D01*
X223505771Y-176114342D02*
X222220057Y-178042914D01*
X224005771Y-177685771D02*
X224005771Y-176185771D01*
X224005771Y-176757200D02*
X224148628Y-176685771D01*
X224434342Y-176685771D01*
X224577200Y-176757200D01*
X224648628Y-176828628D01*
X224720057Y-176971485D01*
X224720057Y-177400057D01*
X224648628Y-177542914D01*
X224577200Y-177614342D01*
X224434342Y-177685771D01*
X224148628Y-177685771D01*
X224005771Y-177614342D01*
X225220057Y-176685771D02*
X225577200Y-177685771D01*
X225934342Y-176685771D02*
X225577200Y-177685771D01*
X225434342Y-178042914D01*
X225362914Y-178114342D01*
X225220057Y-178185771D01*
X226505771Y-177114342D02*
X227648628Y-177114342D01*
X228291485Y-177614342D02*
X228434342Y-177685771D01*
X228720057Y-177685771D01*
X228862914Y-177614342D01*
X228934342Y-177471485D01*
X228934342Y-177400057D01*
X228862914Y-177257200D01*
X228720057Y-177185771D01*
X228505771Y-177185771D01*
X228362914Y-177114342D01*
X228291485Y-176971485D01*
X228291485Y-176900057D01*
X228362914Y-176757200D01*
X228505771Y-176685771D01*
X228720057Y-176685771D01*
X228862914Y-176757200D01*
X230220057Y-177685771D02*
X230220057Y-176900057D01*
X230148628Y-176757200D01*
X230005771Y-176685771D01*
X229720057Y-176685771D01*
X229577200Y-176757200D01*
X230220057Y-177614342D02*
X230077200Y-177685771D01*
X229720057Y-177685771D01*
X229577200Y-177614342D01*
X229505771Y-177471485D01*
X229505771Y-177328628D01*
X229577200Y-177185771D01*
X229720057Y-177114342D01*
X230077200Y-177114342D01*
X230220057Y-177042914D01*
X232005771Y-176114342D02*
X230720057Y-178042914D01*
X233148628Y-176685771D02*
X233148628Y-177685771D01*
X232791485Y-176114342D02*
X232434342Y-177185771D01*
X233362914Y-177185771D01*
X233934342Y-177542914D02*
X234005771Y-177614342D01*
X233934342Y-177685771D01*
X233862914Y-177614342D01*
X233934342Y-177542914D01*
X233934342Y-177685771D01*
X234934342Y-176185771D02*
X235077200Y-176185771D01*
X235220057Y-176257200D01*
X235291485Y-176328628D01*
X235362914Y-176471485D01*
X235434342Y-176757200D01*
X235434342Y-177114342D01*
X235362914Y-177400057D01*
X235291485Y-177542914D01*
X235220057Y-177614342D01*
X235077200Y-177685771D01*
X234934342Y-177685771D01*
X234791485Y-177614342D01*
X234720057Y-177542914D01*
X234648628Y-177400057D01*
X234577200Y-177114342D01*
X234577200Y-176757200D01*
X234648628Y-176471485D01*
X234720057Y-176328628D01*
X234791485Y-176257200D01*
X234934342Y-176185771D01*
X237148628Y-176114342D02*
X235862914Y-178042914D01*
D10*
D11*
X178434342Y-174685771D02*
X178434342Y-173185771D01*
X178934342Y-174257200D01*
X179434342Y-173185771D01*
X179434342Y-174685771D01*
X180362914Y-174685771D02*
X180220057Y-174614342D01*
X180148628Y-174542914D01*
X180077200Y-174400057D01*
X180077200Y-173971485D01*
X180148628Y-173828628D01*
X180220057Y-173757200D01*
X180362914Y-173685771D01*
X180577200Y-173685771D01*
X180720057Y-173757200D01*
X180791485Y-173828628D01*
X180862914Y-173971485D01*
X180862914Y-174400057D01*
X180791485Y-174542914D01*
X180720057Y-174614342D01*
X180577200Y-174685771D01*
X180362914Y-174685771D01*
X182148628Y-174685771D02*
X182148628Y-173185771D01*
X182148628Y-174614342D02*
X182005771Y-174685771D01*
X181720057Y-174685771D01*
X181577200Y-174614342D01*
X181505771Y-174542914D01*
X181434342Y-174400057D01*
X181434342Y-173971485D01*
X181505771Y-173828628D01*
X181577200Y-173757200D01*
X181720057Y-173685771D01*
X182005771Y-173685771D01*
X182148628Y-173757200D01*
X182862914Y-174685771D02*
X182862914Y-173685771D01*
X182862914Y-173185771D02*
X182791485Y-173257200D01*
X182862914Y-173328628D01*
X182934342Y-173257200D01*
X182862914Y-173185771D01*
X182862914Y-173328628D01*
X183362914Y-173685771D02*
X183934342Y-173685771D01*
X183577200Y-174685771D02*
X183577200Y-173400057D01*
X183648628Y-173257200D01*
X183791485Y-173185771D01*
X183934342Y-173185771D01*
X184434342Y-174685771D02*
X184434342Y-173685771D01*
X184434342Y-173185771D02*
X184362914Y-173257200D01*
X184434342Y-173328628D01*
X184505771Y-173257200D01*
X184434342Y-173185771D01*
X184434342Y-173328628D01*
X185791485Y-174614342D02*
X185648628Y-174685771D01*
X185362914Y-174685771D01*
X185220057Y-174614342D01*
X185148628Y-174542914D01*
X185077200Y-174400057D01*
X185077200Y-173971485D01*
X185148628Y-173828628D01*
X185220057Y-173757200D01*
X185362914Y-173685771D01*
X185648628Y-173685771D01*
X185791485Y-173757200D01*
X187077200Y-174685771D02*
X187077200Y-173900057D01*
X187005771Y-173757200D01*
X186862914Y-173685771D01*
X186577200Y-173685771D01*
X186434342Y-173757200D01*
X187077200Y-174614342D02*
X186934342Y-174685771D01*
X186577200Y-174685771D01*
X186434342Y-174614342D01*
X186362914Y-174471485D01*
X186362914Y-174328628D01*
X186434342Y-174185771D01*
X186577200Y-174114342D01*
X186934342Y-174114342D01*
X187077200Y-174042914D01*
X188434342Y-174614342D02*
X188291485Y-174685771D01*
X188005771Y-174685771D01*
X187862914Y-174614342D01*
X187791485Y-174542914D01*
X187720057Y-174400057D01*
X187720057Y-173971485D01*
X187791485Y-173828628D01*
X187862914Y-173757200D01*
X188005771Y-173685771D01*
X188291485Y-173685771D01*
X188434342Y-173757200D01*
X189077200Y-174685771D02*
X189077200Y-173685771D01*
X189077200Y-173185771D02*
X189005771Y-173257200D01*
X189077200Y-173328628D01*
X189148628Y-173257200D01*
X189077200Y-173185771D01*
X189077200Y-173328628D01*
X190005771Y-174685771D02*
X189862914Y-174614342D01*
X189791485Y-174542914D01*
X189720057Y-174400057D01*
X189720057Y-173971485D01*
X189791485Y-173828628D01*
X189862914Y-173757200D01*
X190005771Y-173685771D01*
X190220057Y-173685771D01*
X190362914Y-173757200D01*
X190434342Y-173828628D01*
X190505771Y-173971485D01*
X190505771Y-174400057D01*
X190434342Y-174542914D01*
X190362914Y-174614342D01*
X190220057Y-174685771D01*
X190005771Y-174685771D01*
X190291485Y-173114342D02*
X190077200Y-173328628D01*
X191148628Y-173685771D02*
X191148628Y-174685771D01*
X191148628Y-173828628D02*
X191220057Y-173757200D01*
X191362914Y-173685771D01*
X191577200Y-173685771D01*
X191720057Y-173757200D01*
X191791485Y-173900057D01*
X191791485Y-174685771D01*
X193577200Y-174614342D02*
X193720057Y-174685771D01*
X194005771Y-174685771D01*
X194148628Y-174614342D01*
X194220057Y-174471485D01*
X194220057Y-174400057D01*
X194148628Y-174257200D01*
X194005771Y-174185771D01*
X193791485Y-174185771D01*
X193648628Y-174114342D01*
X193577200Y-173971485D01*
X193577200Y-173900057D01*
X193648628Y-173757200D01*
X193791485Y-173685771D01*
X194005771Y-173685771D01*
X194148628Y-173757200D01*
X194862914Y-174685771D02*
X194862914Y-173685771D01*
X194862914Y-173185771D02*
X194791485Y-173257200D01*
X194862914Y-173328628D01*
X194934342Y-173257200D01*
X194862914Y-173185771D01*
X194862914Y-173328628D01*
X195577200Y-173685771D02*
X195577200Y-174685771D01*
X195577200Y-173828628D02*
X195648628Y-173757200D01*
X195791485Y-173685771D01*
X196005771Y-173685771D01*
X196148628Y-173757200D01*
X196220057Y-173900057D01*
X196220057Y-174685771D01*
X198648628Y-174614342D02*
X198505771Y-174685771D01*
X198220057Y-174685771D01*
X198077200Y-174614342D01*
X198005771Y-174471485D01*
X198005771Y-173900057D01*
X198077200Y-173757200D01*
X198220057Y-173685771D01*
X198505771Y-173685771D01*
X198648628Y-173757200D01*
X198720057Y-173900057D01*
X198720057Y-174042914D01*
X198005771Y-174185771D01*
X199577200Y-174685771D02*
X199434342Y-174614342D01*
X199362914Y-174471485D01*
X199362914Y-173185771D01*
X201291485Y-174685771D02*
X201291485Y-173685771D01*
X201291485Y-173971485D02*
X201362914Y-173828628D01*
X201434342Y-173757200D01*
X201577200Y-173685771D01*
X201720057Y-173685771D01*
X202791485Y-174614342D02*
X202648628Y-174685771D01*
X202362914Y-174685771D01*
X202220057Y-174614342D01*
X202148628Y-174471485D01*
X202148628Y-173900057D01*
X202220057Y-173757200D01*
X202362914Y-173685771D01*
X202648628Y-173685771D01*
X202791485Y-173757200D01*
X202862914Y-173900057D01*
X202862914Y-174042914D01*
X202148628Y-174185771D01*
X203434342Y-174614342D02*
X203577200Y-174685771D01*
X203862914Y-174685771D01*
X204005771Y-174614342D01*
X204077200Y-174471485D01*
X204077200Y-174400057D01*
X204005771Y-174257200D01*
X203862914Y-174185771D01*
X203648628Y-174185771D01*
X203505771Y-174114342D01*
X203434342Y-173971485D01*
X203434342Y-173900057D01*
X203505771Y-173757200D01*
X203648628Y-173685771D01*
X203862914Y-173685771D01*
X204005771Y-173757200D01*
X204720057Y-173685771D02*
X204720057Y-175185771D01*
X204720057Y-173757200D02*
X204862914Y-173685771D01*
X205148628Y-173685771D01*
X205291485Y-173757200D01*
X205362914Y-173828628D01*
X205434342Y-173971485D01*
X205434342Y-174400057D01*
X205362914Y-174542914D01*
X205291485Y-174614342D01*
X205148628Y-174685771D01*
X204862914Y-174685771D01*
X204720057Y-174614342D01*
X206720057Y-174685771D02*
X206720057Y-173900057D01*
X206648628Y-173757200D01*
X206505771Y-173685771D01*
X206220057Y-173685771D01*
X206077200Y-173757200D01*
X206720057Y-174614342D02*
X206577200Y-174685771D01*
X206220057Y-174685771D01*
X206077200Y-174614342D01*
X206005771Y-174471485D01*
X206005771Y-174328628D01*
X206077200Y-174185771D01*
X206220057Y-174114342D01*
X206577200Y-174114342D01*
X206720057Y-174042914D01*
X207648628Y-174685771D02*
X207505771Y-174614342D01*
X207434342Y-174471485D01*
X207434342Y-173185771D01*
X208862914Y-174685771D02*
X208862914Y-173185771D01*
X208862914Y-174614342D02*
X208720057Y-174685771D01*
X208434342Y-174685771D01*
X208291485Y-174614342D01*
X208220057Y-174542914D01*
X208148628Y-174400057D01*
X208148628Y-173971485D01*
X208220057Y-173828628D01*
X208291485Y-173757200D01*
X208434342Y-173685771D01*
X208720057Y-173685771D01*
X208862914Y-173757200D01*
X209791485Y-174685771D02*
X209648628Y-174614342D01*
X209577200Y-174542914D01*
X209505771Y-174400057D01*
X209505771Y-173971485D01*
X209577200Y-173828628D01*
X209648628Y-173757200D01*
X209791485Y-173685771D01*
X210005771Y-173685771D01*
X210148628Y-173757200D01*
X210220057Y-173828628D01*
X210291485Y-173971485D01*
X210291485Y-174400057D01*
X210220057Y-174542914D01*
X210148628Y-174614342D01*
X210005771Y-174685771D01*
X209791485Y-174685771D01*
X212720057Y-174685771D02*
X212720057Y-173185771D01*
X212720057Y-174614342D02*
X212577200Y-174685771D01*
X212291485Y-174685771D01*
X212148628Y-174614342D01*
X212077200Y-174542914D01*
X212005771Y-174400057D01*
X212005771Y-173971485D01*
X212077200Y-173828628D01*
X212148628Y-173757200D01*
X212291485Y-173685771D01*
X212577200Y-173685771D01*
X212720057Y-173757200D01*
X214005771Y-174614342D02*
X213862914Y-174685771D01*
X213577200Y-174685771D01*
X213434342Y-174614342D01*
X213362914Y-174471485D01*
X213362914Y-173900057D01*
X213434342Y-173757200D01*
X213577200Y-173685771D01*
X213862914Y-173685771D01*
X214005771Y-173757200D01*
X214077200Y-173900057D01*
X214077200Y-174042914D01*
X213362914Y-174185771D01*
X214934342Y-174685771D02*
X214791485Y-174614342D01*
X214720057Y-174471485D01*
X214720057Y-173185771D01*
X217291485Y-174685771D02*
X217291485Y-173900057D01*
X217220057Y-173757200D01*
X217077200Y-173685771D01*
X216791485Y-173685771D01*
X216648628Y-173757200D01*
X217291485Y-174614342D02*
X217148628Y-174685771D01*
X216791485Y-174685771D01*
X216648628Y-174614342D01*
X216577200Y-174471485D01*
X216577200Y-174328628D01*
X216648628Y-174185771D01*
X216791485Y-174114342D01*
X217148628Y-174114342D01*
X217291485Y-174042914D01*
X218648628Y-173685771D02*
X218648628Y-174685771D01*
X218005771Y-173685771D02*
X218005771Y-174471485D01*
X218077200Y-174614342D01*
X218220057Y-174685771D01*
X218434342Y-174685771D01*
X218577200Y-174614342D01*
X218648628Y-174542914D01*
X219148628Y-173685771D02*
X219720057Y-173685771D01*
X219362914Y-173185771D02*
X219362914Y-174471485D01*
X219434342Y-174614342D01*
X219577200Y-174685771D01*
X219720057Y-174685771D01*
X220434342Y-174685771D02*
X220291485Y-174614342D01*
X220220057Y-174542914D01*
X220148628Y-174400057D01*
X220148628Y-173971485D01*
X220220057Y-173828628D01*
X220291485Y-173757200D01*
X220434342Y-173685771D01*
X220648628Y-173685771D01*
X220791485Y-173757200D01*
X220862914Y-173828628D01*
X220934342Y-173971485D01*
X220934342Y-174400057D01*
X220862914Y-174542914D01*
X220791485Y-174614342D01*
X220648628Y-174685771D01*
X220434342Y-174685771D01*
X221577200Y-174685771D02*
X221577200Y-173685771D01*
X221577200Y-173971485D02*
X221648628Y-173828628D01*
X221720057Y-173757200D01*
X221862914Y-173685771D01*
X222005771Y-173685771D01*
X223862914Y-174685771D02*
X223720057Y-174614342D01*
X223648628Y-174542914D01*
X223577200Y-174400057D01*
X223577200Y-173971485D01*
X223648628Y-173828628D01*
X223720057Y-173757200D01*
X223862914Y-173685771D01*
X224077200Y-173685771D01*
X224220057Y-173757200D01*
X224291485Y-173828628D01*
X224362914Y-173971485D01*
X224362914Y-174400057D01*
X224291485Y-174542914D01*
X224220057Y-174614342D01*
X224077200Y-174685771D01*
X223862914Y-174685771D01*
X225005771Y-174685771D02*
X225005771Y-173685771D01*
X225005771Y-173971485D02*
X225077200Y-173828628D01*
X225148628Y-173757200D01*
X225291485Y-173685771D01*
X225434342Y-173685771D01*
X225934342Y-174685771D02*
X225934342Y-173685771D01*
X225934342Y-173185771D02*
X225862914Y-173257200D01*
X225934342Y-173328628D01*
X226005771Y-173257200D01*
X225934342Y-173185771D01*
X225934342Y-173328628D01*
X227291485Y-173685771D02*
X227291485Y-174900057D01*
X227220057Y-175042914D01*
X227148628Y-175114342D01*
X227005771Y-175185771D01*
X226791485Y-175185771D01*
X226648628Y-175114342D01*
X227291485Y-174614342D02*
X227148628Y-174685771D01*
X226862914Y-174685771D01*
X226720057Y-174614342D01*
X226648628Y-174542914D01*
X226577200Y-174400057D01*
X226577200Y-173971485D01*
X226648628Y-173828628D01*
X226720057Y-173757200D01*
X226862914Y-173685771D01*
X227148628Y-173685771D01*
X227291485Y-173757200D01*
X228005771Y-174685771D02*
X228005771Y-173685771D01*
X228005771Y-173185771D02*
X227934342Y-173257200D01*
X228005771Y-173328628D01*
X228077200Y-173257200D01*
X228005771Y-173185771D01*
X228005771Y-173328628D01*
X228720057Y-173685771D02*
X228720057Y-174685771D01*
X228720057Y-173828628D02*
X228791485Y-173757200D01*
X228934342Y-173685771D01*
X229148628Y-173685771D01*
X229291485Y-173757200D01*
X229362914Y-173900057D01*
X229362914Y-174685771D01*
X230720057Y-174685771D02*
X230720057Y-173900057D01*
X230648628Y-173757200D01*
X230505771Y-173685771D01*
X230220057Y-173685771D01*
X230077200Y-173757200D01*
X230720057Y-174614342D02*
X230577200Y-174685771D01*
X230220057Y-174685771D01*
X230077200Y-174614342D01*
X230005771Y-174471485D01*
X230005771Y-174328628D01*
X230077200Y-174185771D01*
X230220057Y-174114342D01*
X230577200Y-174114342D01*
X230720057Y-174042914D01*
X231648628Y-174685771D02*
X231505771Y-174614342D01*
X231434342Y-174471485D01*
X231434342Y-173185771D01*
D10*
D11*
X178934342Y-170900057D02*
X179148628Y-170971485D01*
X179220057Y-171042914D01*
X179291485Y-171185771D01*
X179291485Y-171400057D01*
X179220057Y-171542914D01*
X179148628Y-171614342D01*
X179005771Y-171685771D01*
X178434342Y-171685771D01*
X178434342Y-170185771D01*
X178934342Y-170185771D01*
X179077200Y-170257200D01*
X179148628Y-170328628D01*
X179220057Y-170471485D01*
X179220057Y-170614342D01*
X179148628Y-170757200D01*
X179077200Y-170828628D01*
X178934342Y-170900057D01*
X178434342Y-170900057D01*
X180577200Y-171685771D02*
X180577200Y-170900057D01*
X180505771Y-170757200D01*
X180362914Y-170685771D01*
X180077200Y-170685771D01*
X179934342Y-170757200D01*
X180577200Y-171614342D02*
X180434342Y-171685771D01*
X180077200Y-171685771D01*
X179934342Y-171614342D01*
X179862914Y-171471485D01*
X179862914Y-171328628D01*
X179934342Y-171185771D01*
X180077200Y-171114342D01*
X180434342Y-171114342D01*
X180577200Y-171042914D01*
X181291485Y-170685771D02*
X181291485Y-171971485D01*
X181220057Y-172114342D01*
X181077200Y-172185771D01*
X181005771Y-172185771D01*
X181291485Y-170185771D02*
X181220057Y-170257200D01*
X181291485Y-170328628D01*
X181362914Y-170257200D01*
X181291485Y-170185771D01*
X181291485Y-170328628D01*
X182220057Y-171685771D02*
X182077200Y-171614342D01*
X182005771Y-171542914D01*
X181934342Y-171400057D01*
X181934342Y-170971485D01*
X182005771Y-170828628D01*
X182077200Y-170757200D01*
X182220057Y-170685771D01*
X182434342Y-170685771D01*
X182577200Y-170757200D01*
X182648628Y-170828628D01*
X182720057Y-170971485D01*
X182720057Y-171400057D01*
X182648628Y-171542914D01*
X182577200Y-171614342D01*
X182434342Y-171685771D01*
X182220057Y-171685771D01*
X185220057Y-171685771D02*
X184505771Y-171685771D01*
X184505771Y-170185771D01*
X185720057Y-171685771D02*
X185720057Y-170685771D01*
X185720057Y-170185771D02*
X185648628Y-170257200D01*
X185720057Y-170328628D01*
X185791485Y-170257200D01*
X185720057Y-170185771D01*
X185720057Y-170328628D01*
X187077200Y-171614342D02*
X186934342Y-171685771D01*
X186648628Y-171685771D01*
X186505771Y-171614342D01*
X186434342Y-171542914D01*
X186362914Y-171400057D01*
X186362914Y-170971485D01*
X186434342Y-170828628D01*
X186505771Y-170757200D01*
X186648628Y-170685771D01*
X186934342Y-170685771D01*
X187077200Y-170757200D01*
X188291485Y-171614342D02*
X188148628Y-171685771D01*
X187862914Y-171685771D01*
X187720057Y-171614342D01*
X187648628Y-171471485D01*
X187648628Y-170900057D01*
X187720057Y-170757200D01*
X187862914Y-170685771D01*
X188148628Y-170685771D01*
X188291485Y-170757200D01*
X188362914Y-170900057D01*
X188362914Y-171042914D01*
X187648628Y-171185771D01*
X189005771Y-170685771D02*
X189005771Y-171685771D01*
X189005771Y-170828628D02*
X189077200Y-170757200D01*
X189220057Y-170685771D01*
X189434342Y-170685771D01*
X189577200Y-170757200D01*
X189648628Y-170900057D01*
X189648628Y-171685771D01*
X191005771Y-171614342D02*
X190862914Y-171685771D01*
X190577200Y-171685771D01*
X190434342Y-171614342D01*
X190362914Y-171542914D01*
X190291485Y-171400057D01*
X190291485Y-170971485D01*
X190362914Y-170828628D01*
X190434342Y-170757200D01*
X190577200Y-170685771D01*
X190862914Y-170685771D01*
X191005771Y-170757200D01*
X191648628Y-171685771D02*
X191648628Y-170685771D01*
X191648628Y-170185771D02*
X191577200Y-170257200D01*
X191648628Y-170328628D01*
X191720057Y-170257200D01*
X191648628Y-170185771D01*
X191648628Y-170328628D01*
X193005771Y-171685771D02*
X193005771Y-170900057D01*
X192934342Y-170757200D01*
X192791485Y-170685771D01*
X192505771Y-170685771D01*
X192362914Y-170757200D01*
X193005771Y-171614342D02*
X192862914Y-171685771D01*
X192505771Y-171685771D01*
X192362914Y-171614342D01*
X192291485Y-171471485D01*
X192291485Y-171328628D01*
X192362914Y-171185771D01*
X192505771Y-171114342D01*
X192862914Y-171114342D01*
X193005771Y-171042914D01*
X195720057Y-171542914D02*
X195648628Y-171614342D01*
X195434342Y-171685771D01*
X195291485Y-171685771D01*
X195077200Y-171614342D01*
X194934342Y-171471485D01*
X194862914Y-171328628D01*
X194791485Y-171042914D01*
X194791485Y-170828628D01*
X194862914Y-170542914D01*
X194934342Y-170400057D01*
X195077200Y-170257200D01*
X195291485Y-170185771D01*
X195434342Y-170185771D01*
X195648628Y-170257200D01*
X195720057Y-170328628D01*
X196362914Y-171685771D02*
X196362914Y-170685771D01*
X196362914Y-170971485D02*
X196434342Y-170828628D01*
X196505771Y-170757200D01*
X196648628Y-170685771D01*
X196791485Y-170685771D01*
X197862914Y-171614342D02*
X197720057Y-171685771D01*
X197434342Y-171685771D01*
X197291485Y-171614342D01*
X197220057Y-171471485D01*
X197220057Y-170900057D01*
X197291485Y-170757200D01*
X197434342Y-170685771D01*
X197720057Y-170685771D01*
X197862914Y-170757200D01*
X197934342Y-170900057D01*
X197934342Y-171042914D01*
X197220057Y-171185771D01*
X199220057Y-171685771D02*
X199220057Y-170900057D01*
X199148628Y-170757200D01*
X199005771Y-170685771D01*
X198720057Y-170685771D01*
X198577200Y-170757200D01*
X199220057Y-171614342D02*
X199077200Y-171685771D01*
X198720057Y-171685771D01*
X198577200Y-171614342D01*
X198505771Y-171471485D01*
X198505771Y-171328628D01*
X198577200Y-171185771D01*
X198720057Y-171114342D01*
X199077200Y-171114342D01*
X199220057Y-171042914D01*
X199720057Y-170685771D02*
X200291485Y-170685771D01*
X199934342Y-170185771D02*
X199934342Y-171471485D01*
X200005771Y-171614342D01*
X200148628Y-171685771D01*
X200291485Y-171685771D01*
X200791485Y-171685771D02*
X200791485Y-170685771D01*
X200791485Y-170185771D02*
X200720057Y-170257200D01*
X200791485Y-170328628D01*
X200862914Y-170257200D01*
X200791485Y-170185771D01*
X200791485Y-170328628D01*
X201362914Y-170685771D02*
X201720057Y-171685771D01*
X202077200Y-170685771D01*
X203220057Y-171614342D02*
X203077200Y-171685771D01*
X202791485Y-171685771D01*
X202648628Y-171614342D01*
X202577200Y-171471485D01*
X202577200Y-170900057D01*
X202648628Y-170757200D01*
X202791485Y-170685771D01*
X203077200Y-170685771D01*
X203220057Y-170757200D01*
X203291485Y-170900057D01*
X203291485Y-171042914D01*
X202577200Y-171185771D01*
X205934342Y-171542914D02*
X205862914Y-171614342D01*
X205648628Y-171685771D01*
X205505771Y-171685771D01*
X205291485Y-171614342D01*
X205148628Y-171471485D01*
X205077200Y-171328628D01*
X205005771Y-171042914D01*
X205005771Y-170828628D01*
X205077200Y-170542914D01*
X205148628Y-170400057D01*
X205291485Y-170257200D01*
X205505771Y-170185771D01*
X205648628Y-170185771D01*
X205862914Y-170257200D01*
X205934342Y-170328628D01*
X206791485Y-171685771D02*
X206648628Y-171614342D01*
X206577200Y-171542914D01*
X206505771Y-171400057D01*
X206505771Y-170971485D01*
X206577200Y-170828628D01*
X206648628Y-170757200D01*
X206791485Y-170685771D01*
X207005771Y-170685771D01*
X207148628Y-170757200D01*
X207220057Y-170828628D01*
X207291485Y-170971485D01*
X207291485Y-171400057D01*
X207220057Y-171542914D01*
X207148628Y-171614342D01*
X207005771Y-171685771D01*
X206791485Y-171685771D01*
X207934342Y-171685771D02*
X207934342Y-170685771D01*
X207934342Y-170828628D02*
X208005771Y-170757200D01*
X208148628Y-170685771D01*
X208362914Y-170685771D01*
X208505771Y-170757200D01*
X208577200Y-170900057D01*
X208577200Y-171685771D01*
X208577200Y-170900057D02*
X208648628Y-170757200D01*
X208791485Y-170685771D01*
X209005771Y-170685771D01*
X209148628Y-170757200D01*
X209220057Y-170900057D01*
X209220057Y-171685771D01*
X209934342Y-171685771D02*
X209934342Y-170685771D01*
X209934342Y-170828628D02*
X210005771Y-170757200D01*
X210148628Y-170685771D01*
X210362914Y-170685771D01*
X210505771Y-170757200D01*
X210577200Y-170900057D01*
X210577200Y-171685771D01*
X210577200Y-170900057D02*
X210648628Y-170757200D01*
X210791485Y-170685771D01*
X211005771Y-170685771D01*
X211148628Y-170757200D01*
X211220057Y-170900057D01*
X211220057Y-171685771D01*
X212148628Y-171685771D02*
X212005771Y-171614342D01*
X211934342Y-171542914D01*
X211862914Y-171400057D01*
X211862914Y-170971485D01*
X211934342Y-170828628D01*
X212005771Y-170757200D01*
X212148628Y-170685771D01*
X212362914Y-170685771D01*
X212505771Y-170757200D01*
X212577200Y-170828628D01*
X212648628Y-170971485D01*
X212648628Y-171400057D01*
X212577200Y-171542914D01*
X212505771Y-171614342D01*
X212362914Y-171685771D01*
X212148628Y-171685771D01*
X213291485Y-170685771D02*
X213291485Y-171685771D01*
X213291485Y-170828628D02*
X213362914Y-170757200D01*
X213505771Y-170685771D01*
X213720057Y-170685771D01*
X213862914Y-170757200D01*
X213934342Y-170900057D01*
X213934342Y-171685771D01*
X214577200Y-171614342D02*
X214720057Y-171685771D01*
X215005771Y-171685771D01*
X215148628Y-171614342D01*
X215220057Y-171471485D01*
X215220057Y-171400057D01*
X215148628Y-171257200D01*
X215005771Y-171185771D01*
X214791485Y-171185771D01*
X214648628Y-171114342D01*
X214577200Y-170971485D01*
X214577200Y-170900057D01*
X214648628Y-170757200D01*
X214791485Y-170685771D01*
X215005771Y-170685771D01*
X215148628Y-170757200D01*
X216934342Y-171257200D02*
X217648628Y-171257200D01*
X216791485Y-171685771D02*
X217291485Y-170185771D01*
X217791485Y-171685771D01*
X218077200Y-170685771D02*
X218648628Y-170685771D01*
X218291485Y-170185771D02*
X218291485Y-171471485D01*
X218362914Y-171614342D01*
X218505771Y-171685771D01*
X218648628Y-171685771D01*
X218934342Y-170685771D02*
X219505771Y-170685771D01*
X219148628Y-170185771D02*
X219148628Y-171471485D01*
X219220057Y-171614342D01*
X219362914Y-171685771D01*
X219505771Y-171685771D01*
X220005771Y-171685771D02*
X220005771Y-170685771D01*
X220005771Y-170971485D02*
X220077200Y-170828628D01*
X220148628Y-170757200D01*
X220291485Y-170685771D01*
X220434342Y-170685771D01*
X220934342Y-171685771D02*
X220934342Y-170685771D01*
X220934342Y-170185771D02*
X220862914Y-170257200D01*
X220934342Y-170328628D01*
X221005771Y-170257200D01*
X220934342Y-170185771D01*
X220934342Y-170328628D01*
X221648628Y-171685771D02*
X221648628Y-170185771D01*
X221648628Y-170757200D02*
X221791485Y-170685771D01*
X222077200Y-170685771D01*
X222220057Y-170757200D01*
X222291485Y-170828628D01*
X222362914Y-170971485D01*
X222362914Y-171400057D01*
X222291485Y-171542914D01*
X222220057Y-171614342D01*
X222077200Y-171685771D01*
X221791485Y-171685771D01*
X221648628Y-171614342D01*
X223648628Y-170685771D02*
X223648628Y-171685771D01*
X223005771Y-170685771D02*
X223005771Y-171471485D01*
X223077200Y-171614342D01*
X223220057Y-171685771D01*
X223434342Y-171685771D01*
X223577200Y-171614342D01*
X223648628Y-171542914D01*
X224148628Y-170685771D02*
X224720057Y-170685771D01*
X224362914Y-170185771D02*
X224362914Y-171471485D01*
X224434342Y-171614342D01*
X224577200Y-171685771D01*
X224720057Y-171685771D01*
X225220057Y-171685771D02*
X225220057Y-170685771D01*
X225220057Y-170185771D02*
X225148628Y-170257200D01*
X225220057Y-170328628D01*
X225291485Y-170257200D01*
X225220057Y-170185771D01*
X225220057Y-170328628D01*
X226148628Y-171685771D02*
X226005771Y-171614342D01*
X225934342Y-171542914D01*
X225862914Y-171400057D01*
X225862914Y-170971485D01*
X225934342Y-170828628D01*
X226005771Y-170757200D01*
X226148628Y-170685771D01*
X226362914Y-170685771D01*
X226505771Y-170757200D01*
X226577200Y-170828628D01*
X226648628Y-170971485D01*
X226648628Y-171400057D01*
X226577200Y-171542914D01*
X226505771Y-171614342D01*
X226362914Y-171685771D01*
X226148628Y-171685771D01*
X227291485Y-170685771D02*
X227291485Y-171685771D01*
X227291485Y-170828628D02*
X227362914Y-170757200D01*
X227505771Y-170685771D01*
X227720057Y-170685771D01*
X227862914Y-170757200D01*
X227934342Y-170900057D01*
X227934342Y-171685771D01*
X228577200Y-171614342D02*
X228720057Y-171685771D01*
X229005771Y-171685771D01*
X229148628Y-171614342D01*
X229220057Y-171471485D01*
X229220057Y-171400057D01*
X229148628Y-171257200D01*
X229005771Y-171185771D01*
X228791485Y-171185771D01*
X228648628Y-171114342D01*
X228577200Y-170971485D01*
X228577200Y-170900057D01*
X228648628Y-170757200D01*
X228791485Y-170685771D01*
X229005771Y-170685771D01*
X229148628Y-170757200D01*
X230934342Y-171614342D02*
X231148628Y-171685771D01*
X231505771Y-171685771D01*
X231648628Y-171614342D01*
X231720057Y-171542914D01*
X231791485Y-171400057D01*
X231791485Y-171257200D01*
X231720057Y-171114342D01*
X231648628Y-171042914D01*
X231505771Y-170971485D01*
X231220057Y-170900057D01*
X231077200Y-170828628D01*
X231005771Y-170757200D01*
X230934342Y-170614342D01*
X230934342Y-170471485D01*
X231005771Y-170328628D01*
X231077200Y-170257200D01*
X231220057Y-170185771D01*
X231577200Y-170185771D01*
X231791485Y-170257200D01*
X232434342Y-171685771D02*
X232434342Y-170185771D01*
X233077200Y-171685771D02*
X233077200Y-170900057D01*
X233005771Y-170757200D01*
X232862914Y-170685771D01*
X232648628Y-170685771D01*
X232505771Y-170757200D01*
X232434342Y-170828628D01*
X234434342Y-171685771D02*
X234434342Y-170900057D01*
X234362914Y-170757200D01*
X234220057Y-170685771D01*
X233934342Y-170685771D01*
X233791485Y-170757200D01*
X234434342Y-171614342D02*
X234291485Y-171685771D01*
X233934342Y-171685771D01*
X233791485Y-171614342D01*
X233720057Y-171471485D01*
X233720057Y-171328628D01*
X233791485Y-171185771D01*
X233934342Y-171114342D01*
X234291485Y-171114342D01*
X234434342Y-171042914D01*
X235148628Y-171685771D02*
X235148628Y-170685771D01*
X235148628Y-170971485D02*
X235220057Y-170828628D01*
X235291485Y-170757200D01*
X235434342Y-170685771D01*
X235577200Y-170685771D01*
X236648628Y-171614342D02*
X236505771Y-171685771D01*
X236220057Y-171685771D01*
X236077200Y-171614342D01*
X236005771Y-171471485D01*
X236005771Y-170900057D01*
X236077200Y-170757200D01*
X236220057Y-170685771D01*
X236505771Y-170685771D01*
X236648628Y-170757200D01*
X236720057Y-170900057D01*
X236720057Y-171042914D01*
X236005771Y-171185771D01*
X237362914Y-171114342D02*
X238505771Y-171114342D01*
X239148628Y-171257200D02*
X239862914Y-171257200D01*
X239005771Y-171685771D02*
X239505771Y-170185771D01*
X240005771Y-171685771D01*
X240720057Y-171685771D02*
X240577200Y-171614342D01*
X240505771Y-171471485D01*
X240505771Y-170185771D01*
X241291485Y-171685771D02*
X241291485Y-170685771D01*
X241291485Y-170185771D02*
X241220057Y-170257200D01*
X241291485Y-170328628D01*
X241362914Y-170257200D01*
X241291485Y-170185771D01*
X241291485Y-170328628D01*
X242005771Y-171685771D02*
X242005771Y-170185771D01*
X242148628Y-171114342D02*
X242577200Y-171685771D01*
X242577200Y-170685771D02*
X242005771Y-171257200D01*
X243791485Y-171614342D02*
X243648628Y-171685771D01*
X243362914Y-171685771D01*
X243220057Y-171614342D01*
X243148628Y-171471485D01*
X243148628Y-170900057D01*
X243220057Y-170757200D01*
X243362914Y-170685771D01*
X243648628Y-170685771D01*
X243791485Y-170757200D01*
X243862914Y-170900057D01*
X243862914Y-171042914D01*
X243148628Y-171185771D01*
X246291485Y-170685771D02*
X246291485Y-171685771D01*
X245934342Y-170114342D02*
X245577200Y-171185771D01*
X246505771Y-171185771D01*
X247077200Y-171542914D02*
X247148628Y-171614342D01*
X247077200Y-171685771D01*
X247005771Y-171614342D01*
X247077200Y-171542914D01*
X247077200Y-171685771D01*
X248077200Y-170185771D02*
X248220057Y-170185771D01*
X248362914Y-170257200D01*
X248434342Y-170328628D01*
X248505771Y-170471485D01*
X248577200Y-170757200D01*
X248577200Y-171114342D01*
X248505771Y-171400057D01*
X248434342Y-171542914D01*
X248362914Y-171614342D01*
X248220057Y-171685771D01*
X248077200Y-171685771D01*
X247934342Y-171614342D01*
X247862914Y-171542914D01*
X247791485Y-171400057D01*
X247720057Y-171114342D01*
X247720057Y-170757200D01*
X247791485Y-170471485D01*
X247862914Y-170328628D01*
X247934342Y-170257200D01*
X248077200Y-170185771D01*
D10*
D11*
X178934342Y-167900057D02*
X179148628Y-167971485D01*
X179220057Y-168042914D01*
X179291485Y-168185771D01*
X179291485Y-168400057D01*
X179220057Y-168542914D01*
X179148628Y-168614342D01*
X179005771Y-168685771D01*
X178434342Y-168685771D01*
X178434342Y-167185771D01*
X178934342Y-167185771D01*
X179077200Y-167257200D01*
X179148628Y-167328628D01*
X179220057Y-167471485D01*
X179220057Y-167614342D01*
X179148628Y-167757200D01*
X179077200Y-167828628D01*
X178934342Y-167900057D01*
X178434342Y-167900057D01*
X180577200Y-168685771D02*
X180577200Y-167900057D01*
X180505771Y-167757200D01*
X180362914Y-167685771D01*
X180077200Y-167685771D01*
X179934342Y-167757200D01*
X180577200Y-168614342D02*
X180434342Y-168685771D01*
X180077200Y-168685771D01*
X179934342Y-168614342D01*
X179862914Y-168471485D01*
X179862914Y-168328628D01*
X179934342Y-168185771D01*
X180077200Y-168114342D01*
X180434342Y-168114342D01*
X180577200Y-168042914D01*
X181220057Y-168614342D02*
X181362914Y-168685771D01*
X181648628Y-168685771D01*
X181791485Y-168614342D01*
X181862914Y-168471485D01*
X181862914Y-168400057D01*
X181791485Y-168257200D01*
X181648628Y-168185771D01*
X181434342Y-168185771D01*
X181291485Y-168114342D01*
X181220057Y-167971485D01*
X181220057Y-167900057D01*
X181291485Y-167757200D01*
X181434342Y-167685771D01*
X181648628Y-167685771D01*
X181791485Y-167757200D01*
X183148628Y-168685771D02*
X183148628Y-167900057D01*
X183077200Y-167757200D01*
X182934342Y-167685771D01*
X182648628Y-167685771D01*
X182505771Y-167757200D01*
X183148628Y-168614342D02*
X183005771Y-168685771D01*
X182648628Y-168685771D01*
X182505771Y-168614342D01*
X182434342Y-168471485D01*
X182434342Y-168328628D01*
X182505771Y-168185771D01*
X182648628Y-168114342D01*
X183005771Y-168114342D01*
X183148628Y-168042914D01*
X184505771Y-168685771D02*
X184505771Y-167185771D01*
X184505771Y-168614342D02*
X184362914Y-168685771D01*
X184077200Y-168685771D01*
X183934342Y-168614342D01*
X183862914Y-168542914D01*
X183791485Y-168400057D01*
X183791485Y-167971485D01*
X183862914Y-167828628D01*
X183934342Y-167757200D01*
X184077200Y-167685771D01*
X184362914Y-167685771D01*
X184505771Y-167757200D01*
X185434342Y-168685771D02*
X185291485Y-168614342D01*
X185220057Y-168542914D01*
X185148628Y-168400057D01*
X185148628Y-167971485D01*
X185220057Y-167828628D01*
X185291485Y-167757200D01*
X185434342Y-167685771D01*
X185648628Y-167685771D01*
X185791485Y-167757200D01*
X185862914Y-167828628D01*
X185934342Y-167971485D01*
X185934342Y-168400057D01*
X185862914Y-168542914D01*
X185791485Y-168614342D01*
X185648628Y-168685771D01*
X185434342Y-168685771D01*
X188362914Y-168685771D02*
X188362914Y-167185771D01*
X188362914Y-168614342D02*
X188220057Y-168685771D01*
X187934342Y-168685771D01*
X187791485Y-168614342D01*
X187720057Y-168542914D01*
X187648628Y-168400057D01*
X187648628Y-167971485D01*
X187720057Y-167828628D01*
X187791485Y-167757200D01*
X187934342Y-167685771D01*
X188220057Y-167685771D01*
X188362914Y-167757200D01*
X189648628Y-168614342D02*
X189505771Y-168685771D01*
X189220057Y-168685771D01*
X189077200Y-168614342D01*
X189005771Y-168471485D01*
X189005771Y-167900057D01*
X189077200Y-167757200D01*
X189220057Y-167685771D01*
X189505771Y-167685771D01*
X189648628Y-167757200D01*
X189720057Y-167900057D01*
X189720057Y-168042914D01*
X189005771Y-168185771D01*
X191434342Y-168614342D02*
X191648628Y-168685771D01*
X192005771Y-168685771D01*
X192148628Y-168614342D01*
X192220057Y-168542914D01*
X192291485Y-168400057D01*
X192291485Y-168257200D01*
X192220057Y-168114342D01*
X192148628Y-168042914D01*
X192005771Y-167971485D01*
X191720057Y-167900057D01*
X191577200Y-167828628D01*
X191505771Y-167757200D01*
X191434342Y-167614342D01*
X191434342Y-167471485D01*
X191505771Y-167328628D01*
X191577200Y-167257200D01*
X191720057Y-167185771D01*
X192077200Y-167185771D01*
X192291485Y-167257200D01*
X192934342Y-167685771D02*
X192934342Y-169185771D01*
X192934342Y-167757200D02*
X193077200Y-167685771D01*
X193362914Y-167685771D01*
X193505771Y-167757200D01*
X193577200Y-167828628D01*
X193648628Y-167971485D01*
X193648628Y-168400057D01*
X193577200Y-168542914D01*
X193505771Y-168614342D01*
X193362914Y-168685771D01*
X193077200Y-168685771D01*
X192934342Y-168614342D01*
X194934342Y-168685771D02*
X194934342Y-167900057D01*
X194862914Y-167757200D01*
X194720057Y-167685771D01*
X194434342Y-167685771D01*
X194291485Y-167757200D01*
X194934342Y-168614342D02*
X194791485Y-168685771D01*
X194434342Y-168685771D01*
X194291485Y-168614342D01*
X194220057Y-168471485D01*
X194220057Y-168328628D01*
X194291485Y-168185771D01*
X194434342Y-168114342D01*
X194791485Y-168114342D01*
X194934342Y-168042914D01*
X195648628Y-168685771D02*
X195648628Y-167685771D01*
X195648628Y-167971485D02*
X195720057Y-167828628D01*
X195791485Y-167757200D01*
X195934342Y-167685771D01*
X196077200Y-167685771D01*
X196577200Y-168685771D02*
X196577200Y-167185771D01*
X196720057Y-168114342D02*
X197148628Y-168685771D01*
X197148628Y-167685771D02*
X196577200Y-168257200D01*
X198291485Y-167900057D02*
X197791485Y-167900057D01*
X197791485Y-168685771D02*
X197791485Y-167185771D01*
X198505771Y-167185771D01*
X199720057Y-167685771D02*
X199720057Y-168685771D01*
X199077200Y-167685771D02*
X199077200Y-168471485D01*
X199148628Y-168614342D01*
X199291485Y-168685771D01*
X199505771Y-168685771D01*
X199648628Y-168614342D01*
X199720057Y-168542914D01*
X200434342Y-167685771D02*
X200434342Y-168685771D01*
X200434342Y-167828628D02*
X200505771Y-167757200D01*
X200648628Y-167685771D01*
X200862914Y-167685771D01*
X201005771Y-167757200D01*
X201077200Y-167900057D01*
X201077200Y-168685771D01*
X202934342Y-167900057D02*
X203434342Y-167900057D01*
X203648628Y-168685771D02*
X202934342Y-168685771D01*
X202934342Y-167185771D01*
X203648628Y-167185771D01*
X204220057Y-168614342D02*
X204434342Y-168685771D01*
X204791485Y-168685771D01*
X204934342Y-168614342D01*
X205005771Y-168542914D01*
X205077200Y-168400057D01*
X205077200Y-168257200D01*
X205005771Y-168114342D01*
X204934342Y-168042914D01*
X204791485Y-167971485D01*
X204505771Y-167900057D01*
X204362914Y-167828628D01*
X204291485Y-167757200D01*
X204220057Y-167614342D01*
X204220057Y-167471485D01*
X204291485Y-167328628D01*
X204362914Y-167257200D01*
X204505771Y-167185771D01*
X204862914Y-167185771D01*
X205077200Y-167257200D01*
X205720057Y-168685771D02*
X205720057Y-167185771D01*
X206291485Y-167185771D01*
X206434342Y-167257200D01*
X206505771Y-167328628D01*
X206577200Y-167471485D01*
X206577200Y-167685771D01*
X206505771Y-167828628D01*
X206434342Y-167900057D01*
X206291485Y-167971485D01*
X205720057Y-167971485D01*
X207077200Y-167185771D02*
X208005771Y-167185771D01*
X207505771Y-167757200D01*
X207720057Y-167757200D01*
X207862914Y-167828628D01*
X207934342Y-167900057D01*
X208005771Y-168042914D01*
X208005771Y-168400057D01*
X207934342Y-168542914D01*
X207862914Y-168614342D01*
X207720057Y-168685771D01*
X207291485Y-168685771D01*
X207148628Y-168614342D01*
X207077200Y-168542914D01*
X208577200Y-167328628D02*
X208648628Y-167257200D01*
X208791485Y-167185771D01*
X209148628Y-167185771D01*
X209291485Y-167257200D01*
X209362914Y-167328628D01*
X209434342Y-167471485D01*
X209434342Y-167614342D01*
X209362914Y-167828628D01*
X208505771Y-168685771D01*
X209434342Y-168685771D01*
X211005771Y-167185771D02*
X211862914Y-167185771D01*
X211434342Y-168685771D02*
X211434342Y-167185771D01*
X212362914Y-168685771D02*
X212362914Y-167185771D01*
X213005771Y-168685771D02*
X213005771Y-167900057D01*
X212934342Y-167757200D01*
X212791485Y-167685771D01*
X212577200Y-167685771D01*
X212434342Y-167757200D01*
X212362914Y-167828628D01*
X213720057Y-168685771D02*
X213720057Y-167685771D01*
X213720057Y-167185771D02*
X213648628Y-167257200D01*
X213720057Y-167328628D01*
X213791485Y-167257200D01*
X213720057Y-167185771D01*
X213720057Y-167328628D01*
X214434342Y-167685771D02*
X214434342Y-168685771D01*
X214434342Y-167828628D02*
X214505771Y-167757200D01*
X214648628Y-167685771D01*
X214862914Y-167685771D01*
X215005771Y-167757200D01*
X215077200Y-167900057D01*
X215077200Y-168685771D01*
X216434342Y-167685771D02*
X216434342Y-168900057D01*
X216362914Y-169042914D01*
X216291485Y-169114342D01*
X216148628Y-169185771D01*
X215934342Y-169185771D01*
X215791485Y-169114342D01*
X216434342Y-168614342D02*
X216291485Y-168685771D01*
X216005771Y-168685771D01*
X215862914Y-168614342D01*
X215791485Y-168542914D01*
X215720057Y-168400057D01*
X215720057Y-167971485D01*
X215791485Y-167828628D01*
X215862914Y-167757200D01*
X216005771Y-167685771D01*
X216291485Y-167685771D01*
X216434342Y-167757200D01*
X218720057Y-169257200D02*
X218648628Y-169185771D01*
X218505771Y-168971485D01*
X218434342Y-168828628D01*
X218362914Y-168614342D01*
X218291485Y-168257200D01*
X218291485Y-167971485D01*
X218362914Y-167614342D01*
X218434342Y-167400057D01*
X218505771Y-167257200D01*
X218648628Y-167042914D01*
X218720057Y-166971485D01*
X219291485Y-168685771D02*
X219291485Y-167185771D01*
X219934342Y-168685771D02*
X219934342Y-167900057D01*
X219862914Y-167757200D01*
X219720057Y-167685771D01*
X219505771Y-167685771D01*
X219362914Y-167757200D01*
X219291485Y-167828628D01*
X220434342Y-167685771D02*
X221005771Y-167685771D01*
X220648628Y-167185771D02*
X220648628Y-168471485D01*
X220720057Y-168614342D01*
X220862914Y-168685771D01*
X221005771Y-168685771D01*
X221291485Y-167685771D02*
X221862914Y-167685771D01*
X221505771Y-167185771D02*
X221505771Y-168471485D01*
X221577200Y-168614342D01*
X221720057Y-168685771D01*
X221862914Y-168685771D01*
X222362914Y-167685771D02*
X222362914Y-169185771D01*
X222362914Y-167757200D02*
X222505771Y-167685771D01*
X222791485Y-167685771D01*
X222934342Y-167757200D01*
X223005771Y-167828628D01*
X223077200Y-167971485D01*
X223077200Y-168400057D01*
X223005771Y-168542914D01*
X222934342Y-168614342D01*
X222791485Y-168685771D01*
X222505771Y-168685771D01*
X222362914Y-168614342D01*
X223648628Y-168614342D02*
X223791485Y-168685771D01*
X224077200Y-168685771D01*
X224220057Y-168614342D01*
X224291485Y-168471485D01*
X224291485Y-168400057D01*
X224220057Y-168257200D01*
X224077200Y-168185771D01*
X223862914Y-168185771D01*
X223720057Y-168114342D01*
X223648628Y-167971485D01*
X223648628Y-167900057D01*
X223720057Y-167757200D01*
X223862914Y-167685771D01*
X224077200Y-167685771D01*
X224220057Y-167757200D01*
X224934342Y-168542914D02*
X225005771Y-168614342D01*
X224934342Y-168685771D01*
X224862914Y-168614342D01*
X224934342Y-168542914D01*
X224934342Y-168685771D01*
X224934342Y-167757200D02*
X225005771Y-167828628D01*
X224934342Y-167900057D01*
X224862914Y-167828628D01*
X224934342Y-167757200D01*
X224934342Y-167900057D01*
X226720057Y-167114342D02*
X225434342Y-169042914D01*
X228291485Y-167114342D02*
X227005771Y-169042914D01*
X228648628Y-167685771D02*
X228934342Y-168685771D01*
X229220057Y-167971485D01*
X229505771Y-168685771D01*
X229791485Y-167685771D01*
X230220057Y-167685771D02*
X230505771Y-168685771D01*
X230791485Y-167971485D01*
X231077200Y-168685771D01*
X231362914Y-167685771D01*
X231791485Y-167685771D02*
X232077200Y-168685771D01*
X232362914Y-167971485D01*
X232648628Y-168685771D01*
X232934342Y-167685771D01*
X233505771Y-168542914D02*
X233577200Y-168614342D01*
X233505771Y-168685771D01*
X233434342Y-168614342D01*
X233505771Y-168542914D01*
X233505771Y-168685771D01*
X234148628Y-168614342D02*
X234291485Y-168685771D01*
X234577200Y-168685771D01*
X234720057Y-168614342D01*
X234791485Y-168471485D01*
X234791485Y-168400057D01*
X234720057Y-168257200D01*
X234577200Y-168185771D01*
X234362914Y-168185771D01*
X234220057Y-168114342D01*
X234148628Y-167971485D01*
X234148628Y-167900057D01*
X234220057Y-167757200D01*
X234362914Y-167685771D01*
X234577200Y-167685771D01*
X234720057Y-167757200D01*
X235434342Y-167685771D02*
X235434342Y-169185771D01*
X235434342Y-167757200D02*
X235577200Y-167685771D01*
X235862914Y-167685771D01*
X236005771Y-167757200D01*
X236077200Y-167828628D01*
X236148628Y-167971485D01*
X236148628Y-168400057D01*
X236077200Y-168542914D01*
X236005771Y-168614342D01*
X235862914Y-168685771D01*
X235577200Y-168685771D01*
X235434342Y-168614342D01*
X237434342Y-168685771D02*
X237434342Y-167900057D01*
X237362914Y-167757200D01*
X237220057Y-167685771D01*
X236934342Y-167685771D01*
X236791485Y-167757200D01*
X237434342Y-168614342D02*
X237291485Y-168685771D01*
X236934342Y-168685771D01*
X236791485Y-168614342D01*
X236720057Y-168471485D01*
X236720057Y-168328628D01*
X236791485Y-168185771D01*
X236934342Y-168114342D01*
X237291485Y-168114342D01*
X237434342Y-168042914D01*
X238148628Y-168685771D02*
X238148628Y-167685771D01*
X238148628Y-167971485D02*
X238220057Y-167828628D01*
X238291485Y-167757200D01*
X238434342Y-167685771D01*
X238577200Y-167685771D01*
X239077200Y-168685771D02*
X239077200Y-167185771D01*
X239220057Y-168114342D02*
X239648628Y-168685771D01*
X239648628Y-167685771D02*
X239077200Y-168257200D01*
X240077200Y-167685771D02*
X240648628Y-167685771D01*
X240291485Y-168685771D02*
X240291485Y-167400057D01*
X240362914Y-167257200D01*
X240505771Y-167185771D01*
X240648628Y-167185771D01*
X241791485Y-167685771D02*
X241791485Y-168685771D01*
X241148628Y-167685771D02*
X241148628Y-168471485D01*
X241220057Y-168614342D01*
X241362914Y-168685771D01*
X241577200Y-168685771D01*
X241720057Y-168614342D01*
X241791485Y-168542914D01*
X242505771Y-167685771D02*
X242505771Y-168685771D01*
X242505771Y-167828628D02*
X242577200Y-167757200D01*
X242720057Y-167685771D01*
X242934342Y-167685771D01*
X243077200Y-167757200D01*
X243148628Y-167900057D01*
X243148628Y-168685771D01*
X243862914Y-168542914D02*
X243934342Y-168614342D01*
X243862914Y-168685771D01*
X243791485Y-168614342D01*
X243862914Y-168542914D01*
X243862914Y-168685771D01*
X245220057Y-168614342D02*
X245077200Y-168685771D01*
X244791485Y-168685771D01*
X244648628Y-168614342D01*
X244577200Y-168542914D01*
X244505771Y-168400057D01*
X244505771Y-167971485D01*
X244577200Y-167828628D01*
X244648628Y-167757200D01*
X244791485Y-167685771D01*
X245077200Y-167685771D01*
X245220057Y-167757200D01*
X246077200Y-168685771D02*
X245934342Y-168614342D01*
X245862914Y-168542914D01*
X245791485Y-168400057D01*
X245791485Y-167971485D01*
X245862914Y-167828628D01*
X245934342Y-167757200D01*
X246077200Y-167685771D01*
X246291485Y-167685771D01*
X246434342Y-167757200D01*
X246505771Y-167828628D01*
X246577200Y-167971485D01*
X246577200Y-168400057D01*
X246505771Y-168542914D01*
X246434342Y-168614342D01*
X246291485Y-168685771D01*
X246077200Y-168685771D01*
X247220057Y-168685771D02*
X247220057Y-167685771D01*
X247220057Y-167828628D02*
X247291485Y-167757200D01*
X247434342Y-167685771D01*
X247648628Y-167685771D01*
X247791485Y-167757200D01*
X247862914Y-167900057D01*
X247862914Y-168685771D01*
X247862914Y-167900057D02*
X247934342Y-167757200D01*
X248077200Y-167685771D01*
X248291485Y-167685771D01*
X248434342Y-167757200D01*
X248505771Y-167900057D01*
X248505771Y-168685771D01*
X250291485Y-167114342D02*
X249005771Y-169042914D01*
X250791485Y-167685771D02*
X250791485Y-169185771D01*
X250791485Y-167757200D02*
X250934342Y-167685771D01*
X251220057Y-167685771D01*
X251362914Y-167757200D01*
X251434342Y-167828628D01*
X251505771Y-167971485D01*
X251505771Y-168400057D01*
X251434342Y-168542914D01*
X251362914Y-168614342D01*
X251220057Y-168685771D01*
X250934342Y-168685771D01*
X250791485Y-168614342D01*
X252148628Y-168685771D02*
X252148628Y-167685771D01*
X252148628Y-167971485D02*
X252220057Y-167828628D01*
X252291485Y-167757200D01*
X252434342Y-167685771D01*
X252577200Y-167685771D01*
X253291485Y-168685771D02*
X253148628Y-168614342D01*
X253077200Y-168542914D01*
X253005771Y-168400057D01*
X253005771Y-167971485D01*
X253077200Y-167828628D01*
X253148628Y-167757200D01*
X253291485Y-167685771D01*
X253505771Y-167685771D01*
X253648628Y-167757200D01*
X253720057Y-167828628D01*
X253791485Y-167971485D01*
X253791485Y-168400057D01*
X253720057Y-168542914D01*
X253648628Y-168614342D01*
X253505771Y-168685771D01*
X253291485Y-168685771D01*
X255077200Y-168685771D02*
X255077200Y-167185771D01*
X255077200Y-168614342D02*
X254934342Y-168685771D01*
X254648628Y-168685771D01*
X254505771Y-168614342D01*
X254434342Y-168542914D01*
X254362914Y-168400057D01*
X254362914Y-167971485D01*
X254434342Y-167828628D01*
X254505771Y-167757200D01*
X254648628Y-167685771D01*
X254934342Y-167685771D01*
X255077200Y-167757200D01*
X256434342Y-167685771D02*
X256434342Y-168685771D01*
X255791485Y-167685771D02*
X255791485Y-168471485D01*
X255862914Y-168614342D01*
X256005771Y-168685771D01*
X256220057Y-168685771D01*
X256362914Y-168614342D01*
X256434342Y-168542914D01*
X257791485Y-168614342D02*
X257648628Y-168685771D01*
X257362914Y-168685771D01*
X257220057Y-168614342D01*
X257148628Y-168542914D01*
X257077200Y-168400057D01*
X257077200Y-167971485D01*
X257148628Y-167828628D01*
X257220057Y-167757200D01*
X257362914Y-167685771D01*
X257648628Y-167685771D01*
X257791485Y-167757200D01*
X258220057Y-167685771D02*
X258791485Y-167685771D01*
X258434342Y-167185771D02*
X258434342Y-168471485D01*
X258505771Y-168614342D01*
X258648628Y-168685771D01*
X258791485Y-168685771D01*
X259220057Y-168614342D02*
X259362914Y-168685771D01*
X259648628Y-168685771D01*
X259791485Y-168614342D01*
X259862914Y-168471485D01*
X259862914Y-168400057D01*
X259791485Y-168257200D01*
X259648628Y-168185771D01*
X259434342Y-168185771D01*
X259291485Y-168114342D01*
X259220057Y-167971485D01*
X259220057Y-167900057D01*
X259291485Y-167757200D01*
X259434342Y-167685771D01*
X259648628Y-167685771D01*
X259791485Y-167757200D01*
X261577200Y-167114342D02*
X260291485Y-169042914D01*
X262862914Y-168685771D02*
X262005771Y-168685771D01*
X262434342Y-168685771D02*
X262434342Y-167185771D01*
X262291485Y-167400057D01*
X262148628Y-167542914D01*
X262005771Y-167614342D01*
X263362914Y-167185771D02*
X264291485Y-167185771D01*
X263791485Y-167757200D01*
X264005771Y-167757200D01*
X264148628Y-167828628D01*
X264220057Y-167900057D01*
X264291485Y-168042914D01*
X264291485Y-168400057D01*
X264220057Y-168542914D01*
X264148628Y-168614342D01*
X264005771Y-168685771D01*
X263577200Y-168685771D01*
X263434342Y-168614342D01*
X263362914Y-168542914D01*
X265005771Y-168685771D02*
X265291485Y-168685771D01*
X265434342Y-168614342D01*
X265505771Y-168542914D01*
X265648628Y-168328628D01*
X265720057Y-168042914D01*
X265720057Y-167471485D01*
X265648628Y-167328628D01*
X265577200Y-167257200D01*
X265434342Y-167185771D01*
X265148628Y-167185771D01*
X265005771Y-167257200D01*
X264934342Y-167328628D01*
X264862914Y-167471485D01*
X264862914Y-167828628D01*
X264934342Y-167971485D01*
X265005771Y-168042914D01*
X265148628Y-168114342D01*
X265434342Y-168114342D01*
X265577200Y-168042914D01*
X265648628Y-167971485D01*
X265720057Y-167828628D01*
X266648628Y-167185771D02*
X266791485Y-167185771D01*
X266934342Y-167257200D01*
X267005771Y-167328628D01*
X267077200Y-167471485D01*
X267148628Y-167757200D01*
X267148628Y-168114342D01*
X267077200Y-168400057D01*
X267005771Y-168542914D01*
X266934342Y-168614342D01*
X266791485Y-168685771D01*
X266648628Y-168685771D01*
X266505771Y-168614342D01*
X266434342Y-168542914D01*
X266362914Y-168400057D01*
X266291485Y-168114342D01*
X266291485Y-167757200D01*
X266362914Y-167471485D01*
X266434342Y-167328628D01*
X266505771Y-167257200D01*
X266648628Y-167185771D01*
X267648628Y-167185771D02*
X268648628Y-167185771D01*
X268005771Y-168685771D01*
X269077200Y-169257200D02*
X269148628Y-169185771D01*
X269291485Y-168971485D01*
X269362914Y-168828628D01*
X269434342Y-168614342D01*
X269505771Y-168257200D01*
X269505771Y-167971485D01*
X269434342Y-167614342D01*
X269362914Y-167400057D01*
X269291485Y-167257200D01*
X269148628Y-167042914D01*
X269077200Y-166971485D01*
D10*
D11*
X197002200Y-191507200D02*
X197002200Y-194507200D01*
D10*
D11*
X261002200Y-191507200D02*
X261002200Y-198007200D01*
D14*
X144600000Y-133600000D02*
X144600000Y-61800000D01*
X97600000Y-61800000D02*
X97800000Y-61800000D01*
X97600000Y-133600000D02*
X97600000Y-61800000D01*
X98600000Y-133600000D02*
X97600000Y-133600000D01*
X144600000Y-133600000D02*
X98600000Y-133600000D01*
X97800000Y-61800000D02*
X144600000Y-61800000D01*
M02*
